<mxfile host="app.diagrams.net" modified="2023-06-26T03:46:42.777Z" agent="Mozilla/5.0 (Windows NT 10.0; Win64; x64) AppleWebKit/537.36 (KHTML, like Gecko) Chrome/114.0.0.0 Safari/537.36" etag="M9ipllHeQw4wGQO7Snmt" version="21.5.0" type="device">
  <diagram name="第 1 页" id="soZVi2X3i_hcT-2Yg7eZ">
    <mxGraphModel dx="615" dy="308" grid="1" gridSize="10" guides="1" tooltips="1" connect="1" arrows="1" fold="1" page="1" pageScale="1" pageWidth="827" pageHeight="1169" math="0" shadow="0">
      <root>
        <mxCell id="0" />
        <mxCell id="1" parent="0" />
        <mxCell id="3eWW4N3rXiygS2KMkPMq-14" value="" style="rounded=0;whiteSpace=wrap;html=1;dashed=1;dashPattern=12 12;" vertex="1" parent="1">
          <mxGeometry x="250" y="310" width="188" height="200" as="geometry" />
        </mxCell>
        <mxCell id="3eWW4N3rXiygS2KMkPMq-1" value="" style="rounded=0;whiteSpace=wrap;html=1;dashed=1;dashPattern=12 12;" vertex="1" parent="1">
          <mxGeometry x="40" y="140" width="320" height="100" as="geometry" />
        </mxCell>
        <mxCell id="3eWW4N3rXiygS2KMkPMq-2" value="" style="shape=image;verticalLabelPosition=bottom;labelBackgroundColor=default;verticalAlign=top;aspect=fixed;imageAspect=0;image=data:image/png,iVBORw0KGgoAAAANSUhEUgAAAgAAAAIACAYAAAD0eNT6AAAACXBIWXMAAA7DAAAOwwHHb6hkAAAAGXRFWHRTb2Z0d2FyZQB3d3cuaW5rc2NhcGUub3Jnm+48GgAAIABJREFUeJzs3XeYVdW9PvB37dOnMgMMbWaYAbFhFxQGRBDFWDCJBrzGrogmV038pVyTm0Lazc2NMfargGJJciOYopKo2BMLGntBLHQYGNrAtDOn7e/vjwFFyjDlnPPd5f08D48J5axXOWfv96y991oGRORKp90ikeYohmYsVAUsVIiNvmLQ1xj0E0FfA/SFQV8ICgGEAQAGZQAAQRhA4aFvrQKAVgBJADCCRgAQg2THz5stgGyBYLPAbLGMbLEhWwLG2mhn0muilr3q1ltHJPL/b09EvWW0AxDRvk28XYpSYRwGCyPFoMbYqIFBLYBaAIPQy8/wjgLQGwJBPQxWGoMVIlgJYIVAloQzhe/dcUdFS28HIKLcYAEgcgIRM+FeHJC2cYQRHAGDw9Hxz2HI4ec0CwWgMzaAFQZ4G0beFdu8a9uBt+++o3IZYCSXAxPR/rEAECk49i4JxSwcAYPxYmEcBJMA9Mt3jhwXgH1pAvCqMfKiiPVCUdB68be/rYprBCHyMxYAojyYOE+iSRsTjMEpEIwDcCx2XpdXpFQAdpcA8LoBXhSYRVEk/8n7CohyjwWAKEcmzJFaO4BTBDgZglMBlGhn2p1DCsDu4gBeBMxTRuyHZ99Wu1Q7EJEXsQAQZYuIqbsHY4xgGgzOAHCgdqT9cWgB2N1SAf5mWbJg9s01r/L+AaLsYAEg6qVxs2WkCWCaAOcDOEA7T3e4pAB8ysCssWH/xbKsBbNvrn6RZYCo51gAiHpg3GwZiQAuADAdwDDtPD3ltgKwm2UGeNDA/P6uW4cu0Q5D5DYsAERdNHGeRNMZTBWDmQAmwwOfH5cXgF29LsbMToQjv3/ghoGt2mGI3MD1BzCiXDvhHjk0A1xkBFcAKNfOk00eKgA7NRmRP0LMXbNvr3lDOwyRk7EAEO3FxFkSTFdjmgiuAzBaO0+ueLAA7MK8CmP/dkh5zUOzZpm0dhoip2EBINrFuLul2AguE4PrAAzVzpNr3i4An1pvjMxOWrjp3ptqt2mHIXIKFgAiABPnycC0javE4FrIjg1zfMAnBWCnZoHMy2QyN8y744A12mGItLEAkK/VzZWhxuCHAC4CENLOk28+KwA7pYzIvJSd+TmLAPkZCwD5Ut39UoE0/p8RfANAVDuPFp8WgJ2SRuTeNAI/uee26nrtMET5xgJAvlJ3v1SYJK6HwVUAYtp5tPm8AOyUMCL3BW38+I47ajdohyHKFxYA8oVj75KCWBDfFeDbAAq18zgFC8DntADm10VB69fcnZD8wNIOQJRTImb8XJkWDeJ9AX4Mnvxp34oA+UlLKvPxjGtWXQQIvyCRp/ENTp41fo4cKxZuAjBeO4tTcQagM+ZVy5Zv3nV7zcvaSYhygQWAPGfiPBmYEvw3BBeCs1ydYgHYL9sY3Gcl09ffeecBG7XDEGUTD47kKePnyrSUjXchuBh8f1PvWSK4NBMKfjjj2lUzeVmAvIRvZvKECXOkNhPAXRCcop3FTTgD0G3Pw87MnHP78I+0gxD1FgsAudssscZXY4YIfgOgSDuO27AA9EgcMD/ZtqH6hgULTEY7DFFPsQCQa42ZI4cELNwPYJR2FrdiAegN+ZcRXDT7ttql2kmIeoLXSMmVxt8tFwUs/As8+ZMaM1qMefOKq1d9g/cGkBvxTUuucsI90t8WzAVwlnYWL+AMQLaYJ0xALp19U8167SREXcUZAHKNcXPkFFvwFnjyJ8eRUyWDt2Zes/IM7SREXcUZAHK8Y++SUCSEXxvBteB7Nqs4A5B1AoObTPvm/5g9e1RKOwxRZzgDQI52wj3SPxrEEzt27ePJn5zOQHCdRPo9M/ObKwdphyHqDA+o5Fjj75bxAswHwANpJ0wmhXByO0Lt2xFKbEcwHUcgFUcg3Y5AOo5gqg2BTAIAYKXaO/6JDEwmhaVLlsFYYVim47uAFezYGTkQiCIQLEAgGPv0RzBQgGCkBKFIH4TCfWBZIZ1/Yfeoh8G0ObfUvKQdhGhvWADIkerulmsM8BsAPMvsEEo2I9K2CZG2TYi1bkSofRvCie0IpNp6/JpLlyzr8Z8NBgsQjJQiHClHJFaBSGwAIrH+CIWLe/yaHpSE4Lo5t9XcoR2EaHcsAOQoE+dJNJXBHBhcoJ1FUzAVR7SlHgXN6xBrqUe0dSMC6fasj9ObArAvgWAMkVgFYoVDECsaglhhJQLBWNbHcRMRc1+6xb7q3ntrs/+XSNRDLADkGBPvkn7pIB4WoE47S74FUm0o2r4SBU2rUdC8DpH4FkByP24uCsCeDCLRvogVVaGguBqFJbUIBAvyMK7jvBC2g1+6/fbKLdpBiAAWAHKIuntluMngbwAO0s6SDwaCSGsDCrevQvHWZYg1r4PJxxl/N/kpAJ9njEEkNhCFJTUoKK5BQfFQGOOb+5GXZSz7jHtuHvahdhAiFgBSt+Nmv78C6KudJadEUNi0GiWbl6Jk60cIpOPaiVQKwO4CwQIUlx2EkrJDUFBcDR88nLQZBl/kzYGkjQWAVNXNlX8zBvcCiGhnyQUDQaxpLUq2LEXJlg8R7MUNe7nghAKwq0CoEMVlB6Okz6EoKK6Ehw9R7TDm4jm3DJ2vHYT8y7OfLnK+cXfLNwHcCA++D4OpFvRpeA9lm95BqH2bdpx9cloB2FUoUo4+/Y5Ead8jEAwVasfJBYEx35hzy9BbtYOQP3nuwEvuUHeP/KcR/Fw7RzYZCAq3rUBZw9soalwGI7Z2pP1ycgHYyRgLhaUj0Kff0SgsqYUxHjtsGfn+nFtqf6kdg/zHY58kcoPxd8ssAX6snSNbjGRQsnkp+q1b3HH3vou4oQDsKhwpQ5+KUejT7yiPLUQkv5pza+312inIX1gAKH9EzLh7cCOAb2pHyYZAqg19Nr2LvvWvI5hq0Y7TI24rADsFggXo0+9IlFWMQjDkkYWHDO4YUj70mlmzjPOnjsgTWAAoP2aJNa4KswFcrh2lt4LJVvStX4zyhrdh7LR2nF5xawHYybKCKO1/NPoOHIegB9YWEGBuZd+hV7IEUD4EtQOQD4iYunvwv3D5yT+YiqOs4Q30rf8XrExSOw4BsO00Ghv+he2b3kJpv6PRd+BYV98waIAZ67asDgJyGWDyvzAE+QpnACjnxt8tNwtwrXaOnrIySfRb9wrKN7zuuRO/22cAdhcIhFFWcTzKBx4Pywprx+k5IzfPuaXWE5fKyLlYACinxs2V/4LB97Rz9IgApZvfx4DVzyGYbNVOkxNeKwA7BUNF6DfoBPTpfyRcvLDQz+fcWvND7RDkXSwAlDPj58oPxOBn2jl6ItayHgNXPI1YS712lJzyagHYKVowCBVVJ6OgqEo7Ss/wEUHKIRYAyokdi/z8VjtHdwVTrRi48hmUbPkgL5vxaPN6AehgUFI+EhVVJ7vzRkFjruViQZQLLACUdePulukA/g8um3st2fIhBi1f5Ig1+vPFHwWgQyAQRf8hk9Cn/1Fw2aFPjOCC2bfV/EE7CHmLqz4F5Hw7NvZ5EkBUO0tXhRLbMWj5EyjatlI7St75qQDsVFBcjYHVpyMcLdeO0h3tMJjMDYQom1gAKGvGz5YDJYCX4JZd/QQob3gDFaueh2WntNOo8GMBAABjhVFROQll/Y+Biw6DmwyssbNvrfbnXxplnWve+eRsx90nfUNpvATgQO0sXRFMtWHwssdQ1OjvY6lfC8BOhSW1GFQzFcFQkXaUrlqWRmrsvFtHbNIOQu7HAkC9NnGeRNM2nhagTjtLVxRtW4nBn/zdtcv3ZpPfCwAABIMFGFhzBopKR2hH6aoXokidfOutIxLaQcjdXHWTFjlTKoM5bjj5GzuDQSueQvXS+Tz506fS6Tas/eQhNKx5CuKCHRwBjG9H+E7tEOR+LADUK3X3yLUwuEA7x/6Eki0YuuT/ULbhDV883kfdJWjc+CpWf/Q7pFPN2mG6QC654uoVV2mnIHfjJQDqsbq7ZawBngPg6DVXC5rWovLjhz27ml9v8BLAngLBAgwZ9iUUFNdoR9mflLHMSbNvHvqCdhByJxYA6pET7pJBdhCvAxiknaUzfetfQ8Wq52DgiqndvGMB2DtjLPSvnIzyitHaUfZnrVj2qLk3D2vQDkLuw0sA1G3H3iUhO4AH4eSTvwgGrngSA1Y9w5M/dZuIjY1rnsT6lX9z+n0Blca2/jxz5msh7SDkPiwA1G2REH4NgxO0c+yLlUmieulDKN/wpnYUcrntW97Guk8WwHb2LpB1iPT7hXYIch9eAqBuGXuPnGoJHoND3zvBZAuql/4J0VbOiHYFLwF0TSRWgaoR5yIYKtaOsi8CwRlzbqt5TDsIuQdnAKjL6u6XCktwHxx68o+0bUHtu/fz5E9Zl4hvxMql9yEZ36wdZV8MDObO/FZ9P+0g5B4sANQ1IsakMRfAAO0oexNtbUDNkv9DKMnn+yk30skmrProAbS3OnaL6MGSTM3VDkHuwQJAXTL+HnwdgqnaOfYm1rIeQ5c8iECqTTsKeVwmHcfqj/+IeOs67Sj7IF+cce2qmdopyB0cOZVLzjJmjhwSsPAaAMdtpl7YtAZVS/8Ey9k3aTkW7wHoGWOFUTn8HBSW1GpH2Zs2I3Ls7Ntql2oHIWfjDAB1atp8CQQs3A8nnvy3r0bVBwt48qe8EzuJdcsWoK1ltXaUvSkQmHunTZOAdhByNhYA6lR9E64DMEo7x+5iLfWo+vDPsOy0dhTyKdtOY83H89HWskY7yp4Mji8duPIa7RjkbCwAtE9j5kkNDGZp59hdtHUjqj94iN/8SZ3YSaz9ZD7a2zZoR9mDgfnFZdetGqadg5yLBYD2TsQEBLMBFGpH2VU4vhXVHyxAIN2uHYUIAGBnEljz8R+RaHfcI4IFVlpu1w5BzsUCQHs1/m5cCsEp2jl2FUo2Y+iSPyKY4qY+5CyZdBvWfPR/jttJ0ABfmHH1Ksfv1kk6WABoDxPnyUCxcIN2jl1ZmSSqlv6Jz/mTY6VTzVjzyXzYtrMuTRkjv730mo/7a+cg52EBoD2kbPwKgjLtHJ8SwZCPFyLaulE7CVGnEm0NqF/2F6dtINQviBD3CqA9sADQ54yfI8cCcNSU4aAVT6G48RPtGERd0tK0DA2rn9COsbvLr7x6teOe5iFdLAD0GREDC7fAQe+LvvWvoayBu/qRu2zb/CYaN76mHWNXlm1sR13WI32OOdCTvnH34KsC1Gnn2CnWvA4Vq5/TjkHUIxvXPoW2ZketEXDizKtXTdMOQc7BAkAAgLHzJQaD/9LOsVMw1YKqDx+Gcda1VKIuE7GxbsWfkUo66MkAg9/MnFnvuFU9SQcLAAEAAs34DwiqtXMAgLEzqFr6VwRTvOOf3C2TasX6FX91zE2BAqlCNHmddg5yBhYAQt39UiHAt7Vz7DRw1bOItTh2y1WibmlrWYON657WjvEpEXz33/99bV/tHKSPBYBgkrgeDlnxr2jbCpQ1vKEdgyirGhteQ8t2xzzJUpK0Ut/RDkH6WAB87oS7ZBAMrtTOAQDBVBsGL/s7INpJiLJNsGHlQqQds4qluXrGN5YP0E5BulgAfC4TxA/ghK1+BRi87DEEk045QBJlVzrdhg0rF8IhDbfQsgPXa4cgXSwAPlY3V4YaYIZ2DgAob3gDRY3LtGMQ5VRL0zI0bnLGuhYCuWrGNWsrtXOQHhYAHzMGPwQQ1s4RTmxHxap/aMcgyotNa59GKrFNOwYARIH097VDkB4WAJ+acI9UAbhIOwcEGLTscVgO20CFKFdsO4WGNY9rxwAAGODyy65ePVg7B+lgAfCptOAbAELaOfpseheF21dpxyDKq5bty9G09T3tGAAQDkCu1g5BOlgAfGjc3VJsOeDafyAdx4BVz2nHIFLRsOZJpNNt2jEAI1d9/esbi7RjUP6xAPiQAFcIUKqdY9CKpxBIx7VjEKnIpOPYtNYRCwSVpaz45dohKP9YAHxm4iwJGoNvaOcoaF6Hki0faMcgUrV9y3toa3HAhkFGvjlrlgS1Y1B+sQD4TLoS07XX/DcQDFj5jEMehybSJNi45imIqH8YatZuXnmOdgjKLxYAnxGDb2pnKN34HmIt67VjEDlCe9t6R9wQaGC4SZDPsAD4yAlz5AgAozUzWJkkKlb/UzMCkeNsXPcMMhnlR2ENjr/imyuO0g1B+cQC4CNicJV2hn7rXuE2v0S7yaRa0bjxFe0YQMbwZkAfYQHwibHzJSYG52lmCKbiKN/wumYEIsfa2vAqMvpPxVwwc2a9/t4glBcsAD5hWvBvAPpoZuhb/wos7WlOIoeyMwlsbVCfBehjh1Nna4eg/GAB8AkjuEJz/GCyFWUbnLEJCpFTbd34mhMWB1I9VlD+sAD4wLjZMhLAWM0MfesXw7JTmhGIHE/sJLZueFk1gzFywsyrVxysGoLyggXADwK4QHP4YKoNZQ1va0Ygco1tm97QvhfAiDHnawag/GAB8APBNM3hyxregGWnNSMQuYZtp9C4Sf1mWdUbhik/WAA8buxcOQ4Gw7XGt+w0ytfz2j9Rd2zb+Bps3dI8/PJrVh6tGYByjwXA44zBdM3x+2x8lxv+EHVTOt2Gpq3vqmawIOeqBqCcYwHwMhFjgK9oDW8gKNvwhtbwRK62teEV5T0CzHRAjGIAyjEWAA+ruwdjAAzVGr9w2wpE4lu0hidytWT7VrQ1r9CMUHv5NStUlw6n3OL2jx5mBNOg2N/ddud/YSyAC86sxtamJBo2J9CwJYH1m9rR1MrHF92qrDiEg6uKcHBVEaoqYrjpT8vR1OaeG1K3bX4LhSXD1Ma3xJoG4FW1AJRTLABeZnCG1tDBZCuKGpdpDd9txgCXfbkWh48o2ePX2tozaNiSwIZNcWzYmsCmrQlsakxgc2MCrfGMQlraXTQcQM2AGIYNKkDNwI5/1g4sQP8+kc/9vqJYENfPXQLbVgraTS3bP0Y63YZgUGl1XoPTAXxHZ3DKNV7f8agJc6Q2Y2G51vj91i1Gxep/aA3fbWeeOBBnTRzc7T/X1p7B5sbPCsHmbUlsbUph67YEGptSaGt3dkFYusQ9JS0atjC4bxSV/aOo7BdDZf8ohvSPobJvZI8TfWfueWwN7l20JodJs6ui8iSUDxijNr5t2zV33z5slVoAyhnOAHiUbeF0tcGl4+5/tzh0eDGmntj9kz8AFEQDqB5UgOpBe/+Glkja2Lo9icbmJBqbUmjcnkJzawrbmpNobkujqSWN7S0pJJIu+UqaI7FwAH1LQ+hfEkZFWQQDyiLoVxpGRZ8wBpRF0L80gpLC7ByuLjm1Cu+vasa/PtyWldfLtW2b3kL5gOOh9X3NBAKnApitMjjlFAuAR9nAF7Smdwqa1yDc3qg0eveUl4Yx4+xamBz9x4qELQzqH8Wg/tFOf18iaWN7Swqt8Qza2tNoa88gHk+jLWGjbcc/4/EdP5/IoK2940e8PYNU2hnlwbKAwkgQsYiFaNhCLBxEYSyAwmgAZUUh9CkOoU9hEKWFIZQWBlFWFEafoiBKi0IIB/N3P7JlAT+6cARm/OYdNDQm8jZuTyUTWxFvWYdYUaXK+EbkNLAAeBIvAXjQabdIpKkQmwEUaYw/aPkilDW8pTF0twQDBt+59EDUDinUjtIrqbSNeCLz6SxCImEjIwIRQby94+eSKRvpdMcjZW2JNESAjC3YsnzVXk++BeEAAoHPHx46TvCBjl+PBRANBRANB1AUCyAatvJ6Es+GD1a14Orb3kUqrfmoXdeUV4xGRdUpWsM3b+vb2m/BrJHcytNjOAPgQdsLcaJROvlDBMVbP1IZurvO/UKV60/+ABAKWggFLaAn/ypD/HtMP2RoEa75Ui1ufEjtVpkua2pcgoqqyVB6cru4bGvhOADPagxOueOuyk5dYgzUvioUNq1GMKW+nel+HXd4OU4c1U87Bin70riBOO24Cu0Y+5VOtaKtea3a+GIbtWMK5Q4LgBcJTtAaumTLB1pDd9mQihgumlqtHYMc4lvThmFEpfNngpobl+gNbuzxeoNTrrAAeMzY+RIDoLOJhwhKtnysMnRXRSMBXDmtFuEQ3/rUIRy08NOLD0RhLKAdpVNN2z5UXBrYjL7mmo+7/qwluQKPgh5jmjAaQFhj7IKW9Y7e+McY4JIvDsXAfp3fkU/+M6RfDD84/0CYXD0OkgWZVCva4xu0ho8m7dAxWoNTbrAAeIwBxmmNXbjN2TdTnVo3AMcc0kc7BjnUuJFlOG9Sz9aDyJfW7XoLN2Us8DKAx7AAeIwxegWgaJvqxiWdOqimGF86ydkHd9I388xqjDqwVDvGPmkWAAOjdmyh3GAB8BIRI8BYjaED6TiiLWrTk50qKQphxjk1sCznTu+SM1jG4IcXHoj+pSpX0fYr3roeGbXLbDKO2wN7CwuAh0y4FwcAKNcYu6hxOQyct6CKZRlcOa0WpUUh7SjkEmVFIfz00oM61lZwHButTWozbf1mXrNGb2tCyjonvsOph9KCI7XGLmxy5uYq06ZUYkS1zppI5F4jhxbjqjOHasfYq7ZmvX15xNhHqA1OWccC4CHGxuFaY8ea12kNvU+jRpZh8vH9tWOQS007cRCmjHLe+yfeqvhZE6N2jKHsYwHwEDFQaefBVByR9i0aQ+/TgL5RXDTVmd/gyD2+NW0YagbEtGN8TiK+SfM+ABYAD2EB8BADnQIQbVkHJ13+j4QD+Pq5wxCN8O1NvRMLB/Dzyw5BYdRJiwQJ2lvrtQbnJQAP4RHSI8bdLcUAajXGLmxy1vT/+WdU7Xf7XaKuqq6I4rvnDteO8TltLWr33Bxw4bc3OH/dZOoSFgCPEOAwKG3vHG1drzHsXp08pgJjjlB5EII8bNJR/fCVCc5ZR6K9TW0GwIqmkodqDU7ZxQLgEQZQ+1BG2jZpDf05wyoLcfbJQ7RjkEd9/ayhOGJYiXYMAEB720a1sY1kWAA8ggXAI4zoTP8HE80IpvTX/y8uDOKq6cMQDHCdEsqNYMDgpxcfhL4l+osEZdJtSKdaVMa2batGZWDKOhYAjxCDGo1xY4rfRHayLODys2vQp5iL/VBulZeE8KOLDkTAAatKJuJqM28qXzYo+1gAvKNGY9BIq/70/5dOGoJDHTI1S9539PASzDitWjsGEm0NWkOzAHgEC4B31GgMGolv1hj2U0ccVIpT6waoZiD/+erkwZigfLNpol2nfBsjNSoDU9axAHjAabdIBMAgjbHD7Y0awwIAKsojuOxLNXDwFu7kUcYYfP+rI1CtuEhQsn2r1tBDps16X/9GCOo1FgAPaI5iKJT+LsPt2zSGRShoYeZXalHgqAVayE8KIgH89OKDEA3rHEZTye0q4wIIlG0prtIanLKHBcALglC5IGnZSQSUliQ9/8xqVA8qUBmbaKdhgwrw3ekHqIydTrXCttMqY9tic51tD2AB8AIbFRrDhtqbNIbFiaP6oe5ILvZDznDysf1wVt1AhZEFabVZAHHeLknUbSwAHmAb9NUYN5TI/8GnamAM00+tzPu4RJ35xpdrcbDCttPJpM4lOAOjcsyh7GIB8AaVr8OhZH5nAApjAXzt3OEIBfm2JWcJBQ1+funBKC3M71oU6Tx/Bncy0PnSQdnFI6kHGEBlOi6YbMvbWMZ0LPbTrw9vPiZnqugTxqyLDoSVx8dS0qnWvI21K9tIP5WBKatYADxAq43n8wbAqScOxmEHlOZtPKKeOPbAUlycx0tUmXR73sbaFS8BeAMLgAcIoNLGA3naA+CQYcU4/QSNm6yIuu/iU6ow5pCyvIyVSedvFu7zDGcAPIAFwANE6R6AQCb3BaC8NIwrzqmFxXcquYRlAT+8cAQGlUdzPpad0SkAAuEMgAfwsOoBFqCyHFmudwEMBgy+Nn0YigqCOR2HKNuKY0H8/LKDEAnl9hCbUdqJ0ygdcyi7WAA8QAQqd8ZZmUROX/+806swdDAX+yF3GjGkENd8Obf75mRsnXsAAOHduB7AAuABxiCiMq6dydlrH394OU44hpcZyd3OGjsApx+Xu3W6JIefwc4ZlWMOZRcLgAcIdGYAjOTm4FM5IIYLp+pvt0qUDf9v2jAcWFmYk9eWHH0Gu4AFwANYADzAKH0YczEDUBAN4GvnDkM4x9dOifIlHLTw80sPRkkO7mXRmwHQ+dJB2cWjrAd4ZQbAGOCis4aifxm/XJC3DCyP4PtfPQAmy4sEcQaAeoMFwBt0bgLM8sHntPEDcMwhfbL6mkROUTeyHOefNCSrr2nrzQCwAHgAC4A3BFRGFcnaSx1UW4yzJmb34EjkNDNOr8bog7JZcu0svla36BxzKKtYAEhdSVEIM86u4WI/5HmWBfzgghHo34dfoEkfD7mkKmAZXDW9FqVF+d1FjUhLWVEIP73kQO5qSer4DiRV006txAFV+d9HnUjTyKHF+NrUodoxyOe4xqrHBUwaB0bfwNDIe6gKf4SqyIcoDjQialpQFNwG04vr+KHKbb0LZ8Uw5OB7e/caRC71lQmDcFz5jYDduxU1Q5HHe/GnDdrSJUhkCtCW7oOGtmFoiA9HfduBWNtyKGzhKcLL+LfrQX2D9ZhU8iCOKXoKRxT8AzGrJTcD9fbZA4vL/JK/DSppBqS3y/k2ZSULgM9tLN6eKcLH247H0m3j8cbmM9GU7J+9ccgRWAA8wkIGE0sX4NTSeTim6GlYUHs8iIg8IBpoweF9n8bhfZ/GOcN+gSXbTsDiDdPw1uYvQHj12BNYAFxO3kf4Jx/cjwv6/QKVkY+04xCRB1kmjcPKnsVhZc9ic3s1nqu/BLP/jog5HbndEYxyKrvLUlFexRdjkhHcDuAQ7Sw9YhUgMvhh7RT+Vr9OO4GvpVZflYVLAGo+NgZXh6ZhkXYQ6hnO47hQ8z/Qv/0lLDCCZ+DWkz8Rud0IETyefBC/k/ko1w5D3ccC4DLxFzEhFMKbMPiKdpbey95KgkSkwsDg/BTwVupBjNMOQ93DAuDVR0EEAAAgAElEQVQi7YvxbWPhGQBcM5eInKRKDJ5NPoh/1w5CXccC4AIiMO2L8T8Q/Bpcg5uInCkEg9sSC/DfIry/zA34FIDDicBKLsbdAC7RzkJEtD9G8B+p+egjgq8Zw+t8TsYZAIdLLMYNwpM/EbmJwZXJBfgv7RjUORYAB0u8hO8BuE47BxFRdxng+uSDuFY7B+0bC4BDxRdjkhj8TDtHTvViHwIicgGDG1PzcZJ2DNo7FgAHalmMAUbwB/CGPyJytwCA++UP6KcdhPbEAuBAQcE8AAO1cxAR9ZYAQ9JB3KWdg/bEAuAwicX4CoDTtHMQEWWLAGen5+MM7Rz0eSwADiJvo1AEN2rnICLKNhu4WeYhqp2DPsMC4CCJVnwdQJV2DiKiHBieKsDl2iHoMywADiHPIgqDb2rnyC8+BUDkKwb/IfMR1o5BHVgAHCIRxaUABmvnICLKoaoU8FXtENSBBcA5ZmgHICLKA14GcAgWAAdILMahAI7RzkFElAfj2v+EYdohiAXAEWzgAu0MRER5YgIZnKcdglgAHMEITtXOQESULwJM0c5ALADq5Fn0AXCkdg4iojwaI/ejUDuE37EAKEtEMQFc85+I/CWcjqJOO4TfsQAoM8AR2hmIiBQcrh3A71gA9B2kHYCIKN+Exz51LADKbOBA7QxERApYAJSxACgzQIV2BiIiBTz2KWMBUGaAYu0MRET5xmOfPhYAZQIUaWfQw82AiPxKWADUsQDoi2gHICJSENUO4HcsAERERD7EAkBERORDLABEREQ+xAJARETkQywApIhPARARaWEBICIi8iEWACIiIh9iASAiIvIhFgAiIiIfYgEgIiLyIRYA0iN8CoCISAsLABERkQ+xABAREfkQCwAREZEPsQAQERH5EAsAERGRD7EA6MtoByAiUsBjnzIWAH2t2gGIiBQ0awfwOxYAffwQEJEf8dinjAVA33btAERECnjsU8YCoG+ZdgAiIgWfaAfwOxYAbYIPtSMQEeWbgMc+bSwAygT4QDsDEVHeCZZqR/A7FgBllsHL2hnUGG4GRORXtu3jY59DsAAoi4zFBwDqtXMQEeXRJ7HzsFI7hN+xADiAAM9qZyAiyqNntAMQC4AjWII/aWcgIsoXAzyknYFYABwhXIq/AdisnSP/eA8Akd8YoD7IGQBHYAFwADMSSQB/1M6Rf0Y7ABHlmQ383kznPgBOwALgFDZuApDWjpFfnAEg8pmUHcDt2iGoAwuAQ0THYZkA87VzEBHljMG9sXOwSjsGdWABcBDL4Bfw3SwAEflE0s7gV9oh6DMsAA4SGYMlMLhNOwcRUbYJ8Ovov3HvEydhAXCYSBo/ArBOOwcRURatDrfjl9oh6PNYABzGjEczgK+Bd8gRkTfYRnC5uQit2kHo81gAHCg6Fo8CuEk7R84JOw6R14nBL0Ln4intHLQnFgCHipTgeuPnjYKIyAueCQt+oh2C9o4FwKHMSCQTBlPB7YKJyJ3eC6XwFS7641wsAA5Wcjy2iI3TwJsCichdVqYyONWcj0btILRvLAAOFxuHVQKMB/CRdhYioi74IAOcWHgetzl3OhYAF4iNxcq0wQQAb2hnISLqxKsh4MTYdKzWDkL7xwLgEkVj0BARjAdwi3YWIqK9eCAUwyQzHZu0g1DXBLUDUNeZOsQBfCP+Mt4wwG0AirQzEZHvbRfgysh0PKgdhLqHMwAuFBuL+zIZHGQED2hnISL/EmBhOoDDePJ3JxYAlyocj/pIHS6CwRQDvKKdh4h85UUDTIxMx9SCc7BWOwz1DAuAy0XH4MnIWIyBwRQAT4NLCBNRbtgCPGEMJoWnY3xoOp7XDkS9w3sAPCI6Bk8CeDL+IoZaFi4QwXkwGKmdi4hc7x0j+EPKxh8KzsMa7TCUPUY7AOVO6wsYbAVxkhFMMAaH2YKDDFCuneszBpHKRdoh/K2ea0xpSq2+CpB27Ri72gJgKQTvCfB82OBZMx0btENRbnAGwMMKx6MewO92/AAANP8D/UMRlFmC4oyNPsZolkABBIugmoFIjxUonSqpdr0GYEFEsM220RwJY4s5G1vUslDe8cBLqmTNk20AYto5fIszALrahobMpElp7RjkT7wJkLTFtQMQKbF58idNLACkzVEXQInyKKEdgPyNBYC0sQCQXyW1A5C/sQCQNhYA8ieDVu0I5G8sAKStTTsAkRLecU+qWABI20btAEQqBJu1I5C/sQCQMlmvnYBICWcASBULAOkyqNeOQKRDWABIFQsA6bINZwDIr7jELqliASBtnAEgn7JWaCcgf2MBIF3G4gwA+ZMxK7UjkL9xMyBSNfevyze9+vZW7RiuVBgL4LffPVI7BvWUBc4AkCrOAJCqK665YkU0YnFFNPKbFJZHuRMTqWIBIHUi8qF2BqI8+8hMn57RDkH+xgJA6hJJ+03tDER59o52ACIWAFInMO9pZyDKK8G72hGIWADIAezXtRMQ5ZXhDADpYwEgdel09A0Aop2DKG8CFmcASB0LAKm7997rthnwkSjyjXVm1EWrtUMQsQCQIwjwsnYGorwQeUE7AhHAAkAOYUT+qZ2BKC8MXtSOQASwAJBDGDvIAkD+YAsLADkCCwA5wl3zvvUBgE3aOYhybBvaa/kEADkCCwA5hBEAT2mnIMot86SZNCmtnYIIYAEgJxE8ph2BKKfEflw7AtFOLADkGGk78zgAWzsHUY4IbOsJ7RBEO7EAkGPMm/f9TQBe085BlCPvmrqLuQMgOQYLADmKEfmTdgainBDwvU2OwgJAjmKbwAJwWWDyIrEWaEcg2hULADnK3LnfWQGA2wOT17xjxl70gXYIol2xAJDjGJEHtTMQZZfhe5ochwWAHCeYse4HwGelySsEVuaP2iGIdscCQI5zx73f3QBgkXYOoix5xoy+bLl2CKLdsQCQIwkwTzsDUVaIzNWOQLQ3LADkSJbV52FA+Mw0ud0WxPFX7RBEe8MCQI40e/aVKYGZo52DqJfuN5MubdcOQbQ3LADkWMGg9b8AEto5iHoogwBu1w5BtC8sAORYd975nY0GhounkDuJPGRGXbJMOwbRvrAAkKOZjPXLHVsFE7mLBH6rHYGoMywA5Gh3zfv2kory8LvaOYi66R9m7EWvaIcg6gwLADneAdVFv9TOQNQtlvmZdgSi/THaAYi6QtYs+jtgTtPO4Tn1fNIy6wQvmjGXjNeOQbQ/nAEgd8iYb4HLA5MbiPxAOwJRV7AAkCuYmlM+AHC/dg6iThk8acZe+px2DKKuYAEg9xD5IYBW7RhE+2DDxve0QxB1FQsAuYapnlIPAz5aRU41z4y55HXtEERdxQJA7hKJ/Q+AjdoxiHbTjEDgh9ohiLqDBYBcxfQf3wwj39bOQfR58jMz6sL12imIuoMFgFzHVE55AMBC7RxEOyxBUeHN2iGIuosFgNwpYF0NoEU7BvmeDbGuNCOnJ7WDEHUXCwC5khk8eRUMfqSdg3zvDjPmohe0QxD1BAsAudeQF28G8LJ2DPKttZDgf2qHIOopFgByLWNm2YC5CkBCOwv5jsAyM82YC5q0gxD1FAsAuZqpOvkdAN/RzkE+I7jRjL74Me0YRL3BAkCuZ6pOuRUwf9HOQb7xHuJc75/cjwWAvCEduAzACu0Y5HltEPtcM+nSdu0gRL3FAkCeYGonbQOsfwPAx7Eoh8zXzZjLlminIMoGFgDyDFM1+VXAcDlWyg3BLeb4i+/TjkGULSwA5C2Vk38N4PfaMchzXkZxAW82JU9hASBPMcYI0sEZgLyknYU8Yw0CgXO42h95DQsAeY6pndSOQOiLAD7RzkKu1wxkpnKjH/IiFgDyJDN40mZkcBaAbdpZyLXSgDXNHH/529pBiHKBBYA8y9Sc8gFEzgWQ1s5CbmS+Zo6/6AntFES5wgJAnmaqpyyCMeeBJYC6Q/B9c/zFc7VjEOUSCwB5nqk8+SEYMwOArZ2FXOEXZswlv9QOQZRrLADkC6by5PsgYAmg/bnNHH8Jl/klX2ABIN8w1afMA+RKAKKdhRzI4HYcd/G12jGI8oUFgHzFVE2ZC4P/B5YA+hz5lTnukquNMXxfkG+wAJDvmMpTboKRiwGktLOQE8ivzPGXXq+dgijfWADIl0zllAdg5DQATdpZSE0Ggqt58ie/YgEg3zKVU56GyGQAG7WzUN61wsbZZswlt2sHIdLCAkC+ZqqnvIaMPQbAR9pZKG82ANZEM/aSR7SDEGliASDfMzWnrkAgOA6Cp7SzUM69iXR6jDn+ote0gxBpYwEgwo69A6pOngLI9eBaAV71ewQS4824Gau0gxA5gdEOQOQ0svbJMyDmAUDKtLPkXP067QT5kAbMD8zxF/9KOwiRk3AGgGg3pvKUvwHp4wC8o52Fem0ZLDOOJ3+iPbEAEO2FqfrCJ0DhGMDcDF4ScCmzAGEZZUZf/Kp2EiIn4iUAov2QdU/XwbbvBTBCO0vWefMSQCMMrjLHXTJfOwiRk3EGgGg/zJDJLyHQfhRgfgXOBjjdQkjwCJ78ifaPMwBE3SCrF02BMbMBDNXOkhXemQHYADHXmDEXP6QdhMgtOANA1A2mesoioPAQxOMLYXPfGH0CxJMvIJA4mCd/ou5hASDqJlNVF8e2rQlsagDa2rTj+Fc8AazdDGzY0mBGXbldOw6R2wS1AxC5kmAMMhlgWyPQ2gqU9gHCIe1U/pBMA41NQGti58+M14xD5Fa8B4Com+SV+2sBe/kevxCNAkXFQDiskKqH3HQPQDoDNLYAzXEAu11+CaSHmek/XKGSi8ilOANA1F1Gxu1+/gEAtLd3/IhGgeISIMQZgaxIZ4BtLUBz2x7n/c9+T2gcABYAom7gPQBE3SVS1+mvt7cDmzYCW7cAqVSeQnlQIgVs3Aas2Qg0dXLyBwBjd/53QkR74AwAUbeZus7PRjvsnBEIhYCCQqCgADC86tYpQcfNfdtbgHiyG3/QsAAQdROPRkTdIIt/VwKT3gog0O0/bCygIAYUFgJBh1wecMo9ABm7Y4q/KQ6k0z15BRsBU26mX8+nAYi6iDMARN2SHoOenPwBQOyOJwZaW4FIFIjFgGgMsHzaw23p+Lbf3Aa0Jfb/+ztnwZbjASzKQjIiX2ABIOoOI3VZmThLtHf8MI1AKNxRBmIxwOpZt3AN2XHSb2nveIxPsriysqAOLABEXcYCQNQdYsZl9cKZAEgmO35sbwIi4Y5ZgUjYOZcJeiuVAdoTHd/y2xIdJSAn9nNzJhF9jk/nHom6T+bPD2Bo21YAJXkZ0LI61hQIR4BIJDePFebiHoBUBkgkgfYk0Jbs6TX97hM0Izi8zEyfnsnPgETuxhkAoq6qaT0cYvJz8gcA2/7sSQKg4/JAKASEgh3/DO7435o9PpXpeNQxkQaSqY6TfkZpw0SDYqQ+PhzAWzoBiNyFBYCoq+wsT/93e/wMkMgAu98vt7MMWBYQCAIBa8ePHf+7N6EzdkcRSdsd3+RTGSCV7vj/yVQOp/N7yFh1YAEg6hIWAKKuMl18/j/fUqnOFxyyTMcjiDCfPXFg7fj/Gxo/O4nbO765Z6Tj5jytb/K9YWQcgDu0YxC5AQsAUZe59CYzWwDsuCy++9XxtvZ8p8kxLghE1FVcCpioC+SFuwcDqNHOQftVI7/7VaV2CCI3YAEg6oqQNU47AnVR0B6rHYHIDVgAiLrCcGrZPfh3RdQVLABEXSHgDIBbCHcGJOoKFgCi/ZCX5scAHKmdg7rKHC2PzirQTkHkdCwARPsTbD8OQFg7BnVZCM3h0dohiJyOBYBof0Q4/e86vA+AaH9YAIj2y6XP//uZAf/OiPaDBYCoEyJiAPCxMvcZJ7Nm8fhG1Al+QIg6s/iBgwGUa8egbivDwbGDtEMQORkLAFFnLF7/dy3J8DIAUSdYAIg6Y3j93714IyBRZ1gAiDrDBYDci393RJ1iASDaB3ntD/0AjNDOQT1kcKDM/6/+2jGInIoFgGhfUsk6AEY7BvWYQYZPcBDtCwsA0b5YvP7vfrwPgGhfWACI9snwGrL7sQAQ7QMLANFeyPvzwwCO1c5BvTZa5s/iPg5Ee8ECQLQ3LfFjAcS0Y1CvRWHHjtEOQeRELABEe8Pn/z2ECwIR7Q0LANHe2Lx5zDv4d0m0NywARHtjhI+PeYVgvHYEIidiASDajbx273AAg7RzUNYMkN//cph2CCKnYQEg2l2a1/89x/AyANHuWACIdmMLTxZeYwt3dSTaHZc5JQIwbraMNBbOFIOpBxdsOfK2msdCUSsT0c6Vc8vXayfIuZQdSPzm/ZPalzf3WwfIo8ayFs6+ufpFwIh2NiJNLADkSxPnSTQtGA/BVABnC1C566+PLNiE39Y8iQIrpZQwTzxeABJ2ALcsmYiPmyp2/6VNAB43Yh6NRyN/f+CGga0K8YhUsQCQbxx3n/QNp3CSbTDVAF8EUNLZ7z+8YCNurHkSMSudp4QKPFwAkpkgbl16Ij7cvsfJf3dxGDwtMI9aljw6+6Ya7/5HIdoFCwB52vh7ZBhsTBWDMwGcCCDUnT9/xI4SEPVqCfBoAUjZAdz6wYlYun1Ad/+oDeBNY2ShDevRubcMfT0H8YgcgQWAvGWWWOOH4GhYmCrANACH9vYlRxfV41dDn0HYZLIQ0GE8WADSYuF/l56AdxsH9/q1jGC5bWShgfWoSWx6fvbsUR6/JkR+wgJArnfsXVIQC2CybXCmAc4CMDDbYxxfVI//rn4GIctjJcBjBSAtFu5cOh7vNA7JxctvhcHTImahlUg/PHv28O25GIQoX1gAyJXq7pcKK4Uv2MA0A5wCIOd37J9Qsho/q3oeQWPneqj88VABsMVg7kd1eG1LdT6GSwN4BWIWpO3Un+fdccCafAxKlE0sAOQauz6qh4593vP+/j2xdBV+Wvk8Al55gswjBcAWg3s+HotXNw/VirCEjxiS27AAkGNNnCXBdBXGAJgmwJcBVGlnAoBJpSsxq/If3igBHigAthjc+8kYLN5Uox1lp40AnrBhFhQguejWW0cktAMR7Q0LADnK2LlSHgAm2wZTLeAsAUq1M+3NaWXL8L3BL8JyewlweQEQAX63fDT+2XCAdpR9aYPBMwLzaDhtP3LHHbUbtAMR7cQCQOomzJFa2+Csnj6qp+WMPp/gP4a85O4S4OICIAL8YcVoPL/BsSf/3WUAvGWMLLQt8+Dcm2o+0A5E/sYCQPm366N6BmdCcKx2pJ6aWvYxvjvkJfd+kFxaAESAP64YhWc3jNCO0mO7PmI4pG/1c7NmGY8uNkFO5drjFrnL2PkSCzTh5B2P6k2Fh7bbndb3A3xj0KvaMXrGpQXgT6uOxBPrer3Eg2MIsMUYPCNiFsaQ/Outt45o0s5E3scCQDlzwj3SXwSn7fiWfxqAIu1MuXJu3yW4ZtC/tGN0nwsLwF9WHYnHPHTy34t2AC9AzEIxgT/NvbVyrXYg8iYWAMqq8XfLkRBMFYOzAIyCj95jl1S8jRkVb2nH6B6XFYCHVx+Bv60dqR0j3/iIIeWEbw7OlBsiEkokEidalnXWE8usL//3S4HK/f8p77qi4k1cXPGOdoyuc1EBWFR/CB5aeZR2DFVnn95n7VGHFfzFsswjFeuDz5tRhksTU4+xAFC3iUhZMpk8GR3X8qcC6AMAtgAz/hbCym3+fltdOeANXNj/Xe0YXeOSAvBU/UGYv/IY7Riq+pUHcfVlFbCsT3+qFZBnxZhHrWDorwMHmo2K8ciF/H2kpi6Lx+M1gUBgiohMBTAFQHhvv++fqy38+B/B/IZzoK8NfB3n93tPO8b+uaAAPF1/EB70+ckfAM77cjkOGRHd1y9njGCxGPOoBOyHBw+OLM1nNnInFgDaKxGxUqnU0TtO+GcCXX9U7+onQliyyd9vLQPgusGv4Oxyhx+HHV4AXtg4HA8sOw7i86vegweGcOWF/WG6/rFaLsDCgGUerRgcfM4YPmJIe/L3UZo+R0RiiURinGVZU0XkKwB6tJ/q6+stfOdpzgIYAN8avBhfKv9QO8q+ObgAvNgwDPcvOw7CwxQunt4Xw2t6vN/VZgCPwcijwUj48f79TXMWo5GL8ZPlcyLSL5VKnS4iZwL4AoDibLzut54M4s0Ga/+/0eMMgO8MfhlnlX+kHWXvHFoAXt5Ui3s/Pp4nfwBDKyO4/Kt9s/Vy7SJ4wTJYmEL6oaqqgnXZemFyH366fKi9vX0YOm7em2aMGQsg62fqpVsM/v2xEHw+cwsAsCD4z8oXcGqf5dpR9uTAAvD65mrM+XgsbGGBBIArzu+HqiF7veUmG5YAskBs8+ig6tAbxvARQz9hAfABEQmk0+mxtm2fCeCLAA7Ox7g/eC6Il9byIA50lIAfVf0TJ5eu0I7yeQ4rAG9sqcLsj+p48t/hkAOiOO/s8vwMZrDSCBbBshdu2RZ5YuRIk8zPwKSFBcCjRKQwkUicZIyZho6b+MrynWHFNoMr/haCze8UAICgsfGz6udwQvEa7SifcVABeK9xEO74cALSNk/+AGAM8LWL+2NghcreWK2APAtjFrSnQo/U1pptGiEot1gAPCQejw8NBAKn7u9RvXz6rxeDeGoFD+g7hYyNn1c9h3ElDikBDikA7zcOxO0fnsiT/y6OHBnDOWfkvbfvzaePGNpW5q9DhkQdfFcrdQcLgMslEomRAHZ+yz8GDvs7rW8xuOSRENK2dhLnCBkbv6h+FnXFDlji3QEFYMm2gbh96QSk7IB2FMcIWAbXzKhAeR9H/jdZLsBC2GbBoOrgS8YYfrpdylEnC9o/EYkmEonxOx7VOwfAEO1M+3PTq0E88hG/2e0qYjL4n5qncWyh8glYuQB80twfN78/EQmbj43uavRRhZg6pVQ7RldsAvA4jDwaCIcfq6gwLdqBqOtYAFxARPqmUqkzsv2oXr5sjRtc8HAI7VyK5HOiVhq/Hvo0ji7coBdCsQAsa+6Hm5ZMRCKjco3bsYJBg29eMQAlxa4rzXERvGgZLAxIakH/6sJ67UDUORYAh9r5qJ5lWWeKyEQArv6KdNcbATy4xJHTmaqiVhq/qXkKRxY06ARQKgDLm/vipiUnoT3j6rd1Tow/vghTTizRjtFbNgzehMhCsc2jg4eGX9cORHtiAXCI3R7VOwvAIdqZsqk5AVzwSBjNCe0kzlMUSOLGoU/i0ILN+R9coQCsbi3Dje+fhLa0+j2qjhONWLhuZgViMdd9+9+fFQZ4Epa9cMD6yOPcxdAZWAAUiUhBIpGYDOBMy7K+KCIDtDPl0gPvBjDvbc4C7E1RIImbaxbhoNiW/A6c5wKwtrUPfvP+SWhN93hZW0+bfEIxThzrqit8PbEVME/DyMJIIvRw+XCzXTuQX7EA5Flzc3NFJBL5gohMA3AKAN8cCeMp4IKHQ2hs59tub0qDCdxS+wSGRxrzN2geC8CGeAlueG8ymlL73NHO1wpiFq67sgKRsOe+/XcmYwSLYbDADmT+MnhwbLV2ID/hkTgPdjyqd6aITDXG1MHH/93/tDSA21/jLMC+9Am249aaJ1AbzdO6K3kqAA3xYtzw3mRsT8XyMp4bnXZSKcaOKtSOoW0JII+KbS0cVB18kUsT55ZvT0S5JCLBdDo9RkSmiciXAVRpZ3KKVAa48JEQNrbyrbcv5cE4bql9AjWRPMyM5qEAbGwvwg3vnYxtSZ7896W4yMJ1MwcgGOTnYhcbATxhLHtBc1tk0YgRhncQZRnfbVkiIuXJZHIyOjbZ+SIA19/Gmyt//8TCDYt593dnKkJtuLX2cQwJ53jn1hwXgK2JAvz6vZOxJeH7b7ad+tJpfXDM4QXaMZysDZBnxJhHg6nQIxW1RvHZWe9gAeiF3R7VOxEAH2juAluAyxeGsGo7336dqQi14vbaxzEonMO1VXJYALYmCnDD+5Oxub0oZ2N4Qd/yIK65rAKWry7998qnjxjCxvxBQyNLtAO5FY/A3SAiViqVOnrHWvtnAjhWO5NbPbvKws/+yVmA/RkYasFtw57AwFCOSkCOCkBjsgA3vDcZm3jy36/pZ5XjsIN5Y2QvLBdgYcAyj1asDz7PRwy7jgVgP3Z9VM8YcxaAgdqZvEAAXPX3ED7eyrfg/lSGm3DbsCfQL9iW/RfPQQFoSkXxm/cmY32cV8H2Z2D/EL52SX8Yfgyy5dNHDMPx0F/7jjBN2oGcjG+7vWhtbR0cCoXOEpGzAEwCwHqeA6/UW/jeM5wF6IqqSBNur30c5cF4dl84ywWgORXBb96fjPo2V6xjr+7Cr5RjxDAeXnKkHZBnxZhHQnbqES5NvCcWgB12WW9/GjrW2+eZKQ+uezKItxt48bMrhkcacUvtEygNZvFm6CwWgLZ0GDcumYTVLeVZe00vqx4Sxozz+2nH8AvbCF6GwYJAJjS/f43R3wbTAXxdAEQkmEwmpwK4CsBkAHxAPc/e3WjwjUW8d7KrDohuxc21i1AayFIJyFIBaMuE8dv3J2EVT/5ddtl5fVFT5Zt1wJwkA8iTRnDngKrwQmNMRjuQFl9+9WppaRmYSCR+nEwmVwL4M4Ap4MlfxeEVguMGczvxrvqkvRzXrZyC5oxz1tGPp0O4mSf/bjlwWJQnfz0BwHxBjPnrhrXplevXpH7UsNzby7Dvi68KQDwer04mkzeHQqHlAGYBGKIciQDMPDoDy9dzUd3zUbwc3151Mtps/ZmThB3EbUsnYAVP/l1mTMea/+QEUgnIT+xQatX6Ncn7G1a3D9dOlE++KADxeHxoIpGYZ1nWJyJyLQAuSeYgw8oEE6o5C9Ad77f1x7dWnoy4rXerSjITxG0fnIiPmyrUMrjRYQfFMGiAfnmjz4kAuNA21pL6Ncm569a1+WL1Vk8XABEpSiQSsyzL+gDAJeBCPY51+VEZBDz9bsy+d9sq8K2Vp6BdoQSk7ABuWzoBH27nyb87LAuYNI7f/h0sbIDLLTv4Sf2a5M1bl4mnH2fx5CFXRKxkMlY7IgkAABGKSURBVHllKpVaBuDH4Dd+xxtSLDh1GGcBuuudtgp8b/UkJCV/t7CkxcKdH47H0u2+vGzaK0cfVoB+ffmAkQuEDXBtIpL6cMOa5AwR8eRFSs8VgPb29gNSqdRTInKniPDriYtccmQGEd6K2W3/ahmM7606CSk79//x0mLhzqXj8W7j4JyP5TXBoMHEOn77dxXBAAHmNKxJ/bN+ZeIQ7TjZ5pkCICKhRCLxI2PMeyIySTsPdV+/mODMEb59IqdXXmkZjB+tnYC05O4jbYvBPR+NxTuNvHe2J0YfXYjSEjZcNxKDcSZg3qhfnfpPEfHMFI4nCkA8Hh+aTCafA/ATdNzMQS51wWEZFPBOjR75Z1M1frx2AjI5mK20xeCej8fitS3VWX9tPwiHDSYcxx0RXS5qjPx8w9rUS155WsD1BSCRSJxjWdabAOq0s1DvlUaBcw7mLEBPPb99KGZluQTYYnDvJ2Pw6uahWXtNv6kbVYTCQn7794jRtrHe2LA6cZ52kN5ybQEQkVB7e/v/AngIQJl2Hsqecw/NoA+XR++xZ7fX4L/rx8HOQgkQAX6/fBQWb6rpfTCfisUsjOO3f68pEWP+sH5N8jY3XxJwZQHYsW7/48aYq7SzUPYVhDpKAPXcY43D8av6sb0qASLAH1aMxj8bDshiMv+ZMKYIkbArD7W0f/++YW3qmfXrpb92kJ5w3bsykUgclkwmXxWRk7SzUO58+aAM+heIdgxX+1vjCPy6fix68l9RBPjjilF4fgNP/r1RXBjAcUfx27/HnYB06uX1qxKHagfpLlcVgGQyORrAcwCGKUehHAsHgPMP4yxAbz3aOAK3rD+u23/uz6uPxLMbRuQgkb9MGleEUMiTj5DT5w03lnmxYV3KVfeiuaYAxOPxSSLyNIC+2lkoP04/wMbgIs4C9NaCLYfg1vWju/z7/7LqSDyxznVfZhynrDSAo48o0I5BeSJAH9uWRfWrU6dqZ+kqVxSARCLxZcuyHgPAVTR8JGh1LA5EvffglkNxd8NR+/19D685HI/x5J8Vk08oQYC7XPlNoTHycP3qxJe0g3SF4wtAe3v7FAD/Bz7f70sn1dgYXsZZgGyYt+lI3LfxiH3++qL6Q/C3NYflMZF3DegXxOGHcAVyn4oYY+ZvWJs+UzvI/ji6AMTj8ZOMMQ+DJ3/fsgxwKWcBsmbOxqPxwKbD9/j5p+oPwkMr9z9DQF0zeUIpDL/8+1lIxJ6/fk1qonaQzji2ACSTyTGWZT0MgE+E+1xdpY2R/TkLkC13NRyD32/+7Jv+sxsOxPyVxygm8pbKQWEcNJzfWQgxQB5ZvybZ/btw88SRBSAej9cAeBhAkXIUcogZR6W1I3jKnRuOxZ+3HowP2obgjyuO1Y7jKSdPKOa3f9qpGAaP1NfHHbmMpuMKgIgUW5b1CHfyo10dOUAwahC3C86W6lJBrPZYrKn8IvqVuXYhM8cZXhPFsKH89k+7EAwwmcDfty6TUu0ou3PUJ19EAslkcj6APS9Sku9dflQGr6+3erSwDXUYVCQ4b2QGpx9gwzLA1sIYDj8khiUftuOZF5qwaStnWnrKGGDyCZy0pL06NBFO/k5Evmj+f3v3GiNXed9x/Pec2TOzXq/xxpf1bti1MdgGczW3YAdKDHEcfLdJ1aYhwmrKpVUbKahS30RqK/VV865UrXgTKW8aqW2kEppWJClRm0YialBKpZjEJQ4XA16bUijeMHvOmZl/X5ABe72XuZznnDMz38877848z/+Fd/6/839mzjhXmCuZQgWAOI7/RNJ9edeBYrp6remujQ39+6uFG1wV3vzGfyHnpOuuGda1Vw8TBLqwfduwpibLeZeBwnIHZ07Xvizpz/KupKkwJ1XVanV3EAT/IomvzMKiTr/r9IVvhaoXJkMX21KNX5L+99ylPzQTQaBNQSD9/m+Pa/3aQl1ToXgazrm9E1PhM3kXIhUkAJw/f368XC4/L2ky71pQfH/+7JC+fYopwFKWa/xNCwWAJoJA626+fkTH9o/lXQZ6gdPZUhLuGN/sZvIvpQCiKPpnSfvyrgO94ewvnR58KlTC7QEu0Wrjb1oqADQRBJZWCpy++PC41qxmeIkWOffU5FR4JPcy8i4gjuPjZva1vOtAb3n8RyU9eZIX3KZ2G39TKwGgiSCwsJ23rNT+PYV7gzcKzskemJiufD3fGnI0Ozs7EYbhCUlr8qwDveedyOnzT4Z6L8m7knx12vib2gkATQSBD5VDpy89Mq7RlYRRtO2tIAmv23ClO5tXAbm+YyUMw8dF80cHxiqmo9vq+vqJwXzh7bbxd4NPDXxo122jNH90am2jnPyFpM/mVUBuE4BqtXpPEATfy2t/9L7ZWPr8N8t6N8q7kuxsWv1+49+zOZ3G38kEYD4z6eSpSN/7wbuaOTc4I5nhSqDHHh3XimHekIpuuN2T0+G/5bJzHpv+6oY/P5a0+FeTAS34m5+U9NXn+/8KLO3G35RGAGgatCCw5+5Vunsn31CO7jjp+Q1T4W3Ouczf1pxLAIjj+FEzeyKPvdFf5mrSA0+Gensu9/ezeuGr8TelGQCaBiEIrFxZ0pceXq9Kmat/dM9JD01Ml7+aw77ZMrORJEl+YWYbst4b/ekfTpb0lz/qrymA78bf5CMANPVzEDiwZ7XuuGVl3mWgb9iZmspXTU+7apa7Zv4mwCiKftc5R/NHag5uresbPw10Zrb3pwBZNf4sOCdds6Wiq69a31dBYGx1SbfdNJJ3GegrbjJU8rCkxzPdNcvNzGw4juNTkj6a5b7of0+fCvSVZ3v3Nqx5NX6fE4D5+mUicP/+Me24ngCAtGU/Bcj0FTOKokecczR/pG7vlQ397QumV/6vty6b++mKfzn9MBFYt2ZIN15L84cPbnLIki9I+qvMdsxqIzML4jj+uaTNWe2JwfL9VwP96fd7YwpQlMaf5QRgvl6cCHz26Bpdu2047zLQv16ZmAqvyuoTAZm9WsZxfEg0f3j0axsb2r7O9NP/Ke6ldFEafxH02kTgoxOhtm+l+cOrTWdfr++T9K0sNsvsJSiO4++Y2aey2g+D6bkzgf7omeJNAYra+POcAMxX9InAg7+xVluuqORdBvqePT05Xcnky/Ey+eufm5vb5pz7WVb7YbD94XeH9J9ni/H57KI2/qYiBYCmIgaBTVMV/c7n1uZdBgZDo6TG1ePTwz/3vVEml0rOueOi+SMjD91c1x88HchyrKHojb/Iing0sPcT3PEPmQnqzj0o6Y99b5TJS1MURS9K2pLFXoAkfflfh/Tsa9lPAXqt8RdxAjBf3hOBa7ZU9Ln7ufpHpk5NTIVbnXNer2O8//XHcXyHmf3Q9z7AhV56x+nhfwrVyGgM0GuNv6kXAkBTHkHAOen3jq/XxHiYyX7ABe6YnC7/h88NsjgC+M0M9gAusnnMdM8VDT3zkt8pQK82/l6Ux9HADdtX0PyRC2f6LUleA4DXlywzc3Ecvyxpo899gIXMzDodfypU0kh/7X5p/L00AZjP90SgFDh98aFxrRnrr++ZQG9wcq9vmBqa9nkM4HUCkCTJraL5IycTo6b7tjT0j/+d3hSgXxp/P/A9EbjlphGaP3JjssvPnE5ulfScrz28BgAzO+pzfWA5x2+o67u/CDRX624dGn9x+QgCQ0NOn9jJO/+RryCwo/IYALy+lEVRdELStT73AJbzxI9L+rsXOruS6/fG38tHAItJ42jgro+Nau/uy1KuDGjbC5PT5et8Le7tr39ubm6Lc+5FX+sDrTofSQ98s6zZuPXn9Hvjb+rHANDUaRAYrgR67JFxrVhRjJtJYbA1gsY1l18+fNLH2t6OAJxz9/taG2jHqor069vr+tp/LT8FGJTGPwg6PRq48/aVNH8URtAoHZH0FR9re3uJi6LoWUk7fa0PtKOaSA88GeqdaOH/8oPa+Pt5AjBfKxOBkRWBHnt0XJUyAQCF8cPJ6fIuHwt7+eufnZ2dCMPwdUn8FaEwvvGzkv76uYunAIPa+JsGKQA0LRUE9t17mXbdNppTZcCCrO5qG6emRl5Le2EvRwDlcvmYmdH8USiHt9b19y8EevM9N/CNf5AtdjSwajTQ7TtW5l0eMJ8LNHRQ0hOpL5z2gpIURdG3Je31sXYvq9clq2ffbYIhU0AckyT94HSguC7t3kTjlwZzAjCfmfSTk1UNlZy2bx3Ou5xCaNRNtbqHO2gto1QKVCrxf3I+J/vOxHTl0+mvmzIzWx3H8TlJ5bTX7nXvnZfmqtn/5x4ZlYZH8vxuPBQVAQALqVYT/fJ89l+8NDwSanSUWy8vIIkb4YZNm9zbaS6a+nVhHMcHRfMHACAtYRjE+9Ne1MdgmLv/AQCQIqcg9d6aagAws4qk1M8pAAAYbHbf6dO2Is0VUw0AURTtlcQNtAEASNdoGER70lww1QDgnGP8DwCAB9ZI9xggtQBgZiUzO5TWegAA4CJHzCy1+/ekFgBqtdpdzrn1aa0HAAAusnbmtdqdaS2W5gSA8T8AAB65FHttmgHgSFprAQCAS5nTMTNL5Q5eqQSAOI5vlrQ5jbUAAMCiNr3xRrIjjYVSCQCM/wEAyEbQSKfnpnUEcCyldQAAwJJcKj236wBQrVY3S7ohhVoAAMDybjh3em5rt4t0HQCcc5/pdg0AANC6upUOd7tGGkcAnP8DAJAhJ+v6GKCrADA7O7vBObez2yIAAEDrzGnXmy/bZDdrdBUAyuXyEUmlbtYAAABtC5KhpKvb73cVAPj4HwAA+ej2roAdBwAzWyXpnm42BwAAnXL3vvWiXdbpszsOAHEcH5A03OnzAQBAVypJJd7f6ZO7OQJg/A8AQI4scB334o4CgJlVJO3rdFMAAJAC04GXXrKOpvEdBYAoij4pqeNzBwAAkIrR4aH6vZ08sdMjAO79DwBAATg1OjoGaDsAmFngnDvYyWYAACBdJh0xs7bvydN2AKjVah+XNNHu8wAAgBfjZ16t7Wr3SZ1MABj/AwBQIK7U/k2BOgkAfPwPAIBiafubedsKAFEU3SjpynY3AQAAHpmuOHs6urGdp7Q7AWD8DwBAATUUtDWhbzcAMP4HAKCAnNp7j17LAaBarV4h6aZ2CwIAAP6ZtOPsK3MtH9O3HACcc8ckuY6qAgAA3tVLwZFWH9vOEQDn/wAAFJiz1o/qWwoAZrbOOffxzksCAAAZuHNmxsZbeWBLASBJkiOS2r7NIAAAyFRJSXKolQe2OgFg/A8AQA8wtXbDvmUDgJmNSvpk1xUBAIAMuE+9+aatWu5RywaAOI73SRpOpSYAAOBbpRbF9y33oFaOABj/AwDQQ8zcsscASwYAMwsl7UutIgAA4J2TDpw4YeWlHrNkAIii6F5JY6lWBQAAfFv9kVW1e5Z6wHJHAIz/AQDoQW6ZTwMsGgDMLHDOHU6/JAAA4F2gY2a2aJ9f9Be1Wm2npEkvRQEAAL9MG869XrtjsV8vGgAajQZf/QsAQA9r2OK9fKn3ALT8jUIAAKCI3P2L/WbBABBF0fWStnmrBwAAZGHLmVei6xb6xWITAMb/AAD0AXPBgp/oWywA8PE/AAD6gAsW/jjgJQGgWq1ulHSz94oAAIB/pltnXq5unv/jSwKAc+6oJJdJUQAAwL9S6dD8H10SAIJg4bMCAADQm2yB9/ZdFADMbK2Z3ZVdSQAAIAN3v/GGrbvwBxcFgCRJDksayrQkAADgW8nVkoMX/mD+BICP/wEA0Ifs/ff4feCDAGBmI5L2ZF4RAADwzsn2zszYyua/PwgAcRzvkzSSS1UAAMC3FY0k/nTzHxceATD+BwCgjzl9eAwQSJKZhZIO5FYRAADwzkmHTpywsvSrABBF0W5JH8mzKAAA4JdJY+vGandLHx4BMP4HAGAANBrvf+IvMDPnnDucd0EAAMA/J3fUzFyQJMnHJE3lXRAAAPDPZJfPvJbcHnDzHwAABouZHQ3E+X+G3Nt57Gqmd/PYF0BvMnPn89nX3spj30HknPvM/wNCP+6CDY+vKwAAAABJRU5ErkJggg==;" vertex="1" parent="1">
          <mxGeometry x="40" y="90" width="42" height="42" as="geometry" />
        </mxCell>
        <mxCell id="3eWW4N3rXiygS2KMkPMq-3" value="&lt;font style=&quot;font-size: 14px;&quot;&gt;Admin Operation&lt;/font&gt;" style="text;html=1;strokeColor=none;fillColor=none;align=left;verticalAlign=middle;whiteSpace=wrap;rounded=0;" vertex="1" parent="1">
          <mxGeometry x="90" y="110" width="130" height="30" as="geometry" />
        </mxCell>
        <mxCell id="3eWW4N3rXiygS2KMkPMq-4" value="&lt;font style=&quot;font-size: 14px;&quot;&gt;Create flight &amp;amp; ticket&lt;br&gt;data into MySQL&lt;/font&gt;" style="rounded=0;whiteSpace=wrap;html=1;" vertex="1" parent="1">
          <mxGeometry x="60" y="165" width="140" height="50" as="geometry" />
        </mxCell>
        <mxCell id="3eWW4N3rXiygS2KMkPMq-5" value="&lt;font style=&quot;font-size: 14px;&quot;&gt;Cache ticket&lt;br&gt;data into Redis&lt;/font&gt;" style="rounded=0;whiteSpace=wrap;html=1;" vertex="1" parent="1">
          <mxGeometry x="220" y="165" width="120" height="50" as="geometry" />
        </mxCell>
        <mxCell id="3eWW4N3rXiygS2KMkPMq-6" value="" style="endArrow=classic;html=1;rounded=0;exitX=1;exitY=0.5;exitDx=0;exitDy=0;entryX=0;entryY=0.5;entryDx=0;entryDy=0;" edge="1" parent="1" source="3eWW4N3rXiygS2KMkPMq-4" target="3eWW4N3rXiygS2KMkPMq-5">
          <mxGeometry width="50" height="50" relative="1" as="geometry">
            <mxPoint x="260" y="250" as="sourcePoint" />
            <mxPoint x="210" y="190" as="targetPoint" />
          </mxGeometry>
        </mxCell>
        <mxCell id="3eWW4N3rXiygS2KMkPMq-7" value="" style="shape=image;verticalLabelPosition=bottom;labelBackgroundColor=default;verticalAlign=top;aspect=fixed;imageAspect=0;image=data:image/png,iVBORw0KGgoAAAANSUhEUgAAAgAAAAIACAYAAAD0eNT6AAAABHNCSVQICAgIfAhkiAAAAAlwSFlzAAAN1wAADdcBQiibeAAAABl0RVh0U29mdHdhcmUAd3d3Lmlua3NjYXBlLm9yZ5vuPBoAACAASURBVHic7d15nF1FnTbwp852t95ysy8swbCFHURpkOzQNBK0VQZFkF1BiAswgApxhhkl77zjq/OSYUYHUVTEGUdHjUPMDOqMji8DOuKCiqggi2FN0iR9u++951TV+8dNAkKW7tu3Tp3l+X4++ShLn98vofvWc6rq1BFaaxBRy8rBAbfRaL5GKfUardWrAFS1Rg+AbgBdACqALmmNIoCC1joA4GmtXQCO1loAgBBCbv8VAYiEEGHrF0YBsRnAswCeAvAkgEcB/KxUKv5s3foNysJvm4hySDAAUB6dsnTJNEAv1xonaa2P0FofoLWarpQumfyZcBwBx3HhOA5c14HjvPgLQATgaQAbAfwBwC8B/BjAA+vWb3jUWFNElEsMAJRpp61Y5kqp3qyUeqPWeqHWep7Wqlcp7ZmsK4SA67pw3T8e7IUQ7V5yC4AHtv/68fZfD3PGgIjaxQBAmXPqsiWnKKUuVEqfLKWco7V2TNfcMeB7ngfPaw38MagB+Cm2zxJs/98H163fEMVRnIjSjQGAUu/UZUuOU0pfqpRaoZTaXyllfPQVAnDd1mDveV5cA/54bAPwXQAbAPzbuvUbfmu5HyJKKAYASp1Tli6eqTWu1loNSqkOUkoFcdR1HAe+7++8y0+JRwD8G1qB4Dvr1m/YarkfIkoIBgBKhVOWLnG01lcppS6XMjogrm9bIQR830cQ+Em6y29XE60g8CUA31i3fsOI5X6IyCIGAEq0U5ctOUVKtVpKeYJSyujGvR1ag763824/o8YAfBOtMHD3uvUb6pb7IaKYMQBQ4gwsX7aPlPKjUso3SCm746r74qDvo/3N+qm0FcDXAXxu3foN99huhojiwQBAibBycMCr1xvXSSnfKaXcN67vS8dxEAQBgsCfzCN6WfIQgLUA7uASAVG2MQCQVcsXL+oDcJuU8kyllB9XXcdxUCgUEASxlUybrQDuALB23foND9tuhog6jwGArDhl6ZJpSqlPR1F0RhzP6e/geS6CoADfz+zafqdptJ4iuAXAeh48RJQdDAAUq4HlS2dGkbw9iqLT4hz4fd9DoVDIwk5+m34B4MMAvrpu/QZ+cBClHAMAxeK0FcvmRlH0mTCMVux4YU4cgsBHoVDYcdY+dcYDAFavW7/hm7YbIaL2MQCQUaetWD4/iqLbwzBcHOfA7/seisUiB36z7gNw47r1G/7ddiNENHEMAGTE8sWLegF8MYqiwTgHfsdxUCoVs/z8fhJ9D60g8D3bjRDR+DEAUMctX7zow1EU3aC12TfuvZQQAsViAUEQy6nAtGtfA7Bq3foNT9puhIj2jgGAOmbFksXHSCm/IaWcF2fdIAhQLBb4HH8yjAC4EcAt69ZvkLabIaLdYwCgSRtYvtSPIvnFKIreHOd0v+e11vldl+v8CfQAgHetW7/hh7YbIaJdYwCgSTll6ZJzoyj8pJSqHFdNIQRKpRKf5U8+BeBWAB/iWwiJkocBgNpy2oplc8Iw+tcwDI+Os67v+yiVipzuT5eNAN67bv2Gf7bdCBG9iAGAJuyUpYs/GIbRTUqp2E7VaW3yK/Lo3nT7IlrLAnzHAFECMADQuC09+XUzhcC3o0geFmdd13VRLpf4TH82/BrAn6xbv+Fnthshyjt+otK4LF+86HSt1WNxD/7FYgFdXRUO/tlxMID7Vg4OXGq7EaK84wwA7dXyxYv+JgzDVQBiPdCnXC7x7P5suxPAZVwSILKDAYB269RlSytRFP0giqKj4qzL5/pz5dcAzlq3fsPPbTdClDecV6VdOnXZ0v4wDJ+Oe/AvlYrc5Z8vO5YELrbdCFHeMADQK5y6bMkNjUbjB1LKrrhqCiFQqZR5lG8+lQDctnJw4GbbjRDlCZcAaKeVgwNibKz+781mc3mcdR3HQaVS5kY/AoDbAbyTxwgTmccAQACAFUsWdSulfxJF0QFx1vU8F+VymVP+9FJfB/DWdes31G03QpRlDACEZYtOfpVS6sdKqZ446/q+j3K5FGdJSo/vAThz3foNL9huhCirOOeacyuWLDpaKfVg3IN/sVjg4E97sgjA91YODsy23QhRVjEA5NiKJYsXR1F0v1KqGGfdcrmEQqEQZ0lKpyMB/GDl4MAC240QZREDQE6dsnTJG8Mw/LZSOrbD9YUAKpUyfJ/n+dO4zUcrBMT6OCpRHjAA5NCpy5Zc1Gw2v6q1jvFlPkC5XIbn8RW+NGEzAGxYOTgQ6wZVoqxjAMiZU5ct+dNGo3mb1jrWbfcc/GmSZgL41srBgem2GyHKCgaAHDll6ZIbG43mX8U9+FcqHPypIw4E8K8rBwcqthshygIGgJxYsWTxdc1m46a4H/vk4E8ddjyAL68cHOA3FdEkMQDkwPLFJ1/VbDbXxH3kAwd/MmQQwG22myBKOwaAjFu26OSLwjD6WNx1OfiTYefz3QFEk8OTADNs+eJFS6MoukdrHWvQK5fL8H0O/hSLVevWb1hruwmiNGIAyKhTli4+KAyjnyulYn29XqlUQhDwOX+KjQLwbgCfWrd+Az/MiCaASwAZNLB86ZQokj+Ke/AvFAIO/hQ3B8DfA/jxysGBAdvNEKUJZwAyZuXggF+rjf4+iqI5cdb1PA+VSjnOkkS78l0A161bv+GHthshSjoGgAxZOTggxsbqP2k2m0fGWddxHHR1VfhKX0qSTwC4dt36DaHtRoiSiksAGVKvN+6Me/AXQqBSKXPwp6R5H4Dvrxwc2Nd2I0RJxQCQEacsXXJps9l4W9x1y+USHIffRpRIrwXwwMrBgTNsN0KURFwCyIAVSxYdHYbRj+J8uQ8AlEpFBEGs+wyJ2qEB/C8AH+STAkQv4q1byi0+6cRKFMnvxT34B0HAwZ/SQgC4HsAtthshShIGgJRzXffflVLdMddEqVSMsyRRJ1yxcnDgb2w3QZQUDAAptmLJoquiKOqPs6YQAuVyKc6SRJ30npWDAx+33QRREnAPQEqdumzJgkaj+RDX/Yna8rF16zdcY7sJIps4A5BCKwcHhI11f8/zOPhTVly9cnDgf9lugsgmBoAUqtcbd0ZRNDvOmkIIrvtT1ly7cnDgMttNENnCJYCUOW3FssGxsfrdcf93K5dL8H2e80+ZMwrg6HXrN/zGdiNEcWMASJGVgwNurVbbHEWyJ866vu9z4x9l2f0ATlq3fkNkuxGiOHEJIEXGxsbujHvw59Q/5cBrANxguwmiuHEGICVWLFl0QhhG/09rHeuh++VyGb7vxVmSyIYIwOvWrd9wn+1GiOLCAJACi07sdxzHeUYpNS3OukHgo1Ti1D/lxm8AHLNu/Yaa7UaI4sAlgBTwPO+v4h78hRAoFjn1T7lyIICP2W6CKC6cAUi45YsX9UVR9JzWOtZ5+GKxgEKhEGdJoqR4/br1G+623QSRaZwBSL6vxD34O46DIODgT7n1NysHB7jxhTKPASDBBpYvfU0URcvirlsoFCBi3WpIlCgLAFxouwki0xgAEiyK5D/HvUTjui6CgAf+UO6tXjk4wE0wlGkMAAk1sHzZFWEY7hN3XW78IwIAzANwue0miExiAEioMAw/GndN3/fgebG+X4goyT6wcnCgbLsJIlMYABLolKVLPhBFUawn/gG8+yd6mekA3mq7CSJTGAASZtGJ/SKKwg/FXbdQCOA4/HYgehm+LZAyi5/4CeP7/kelVJU4awoh+Mw/0a4dv3Jw4FjbTRCZwACQIItO7C9EUfS+uOv6vg/B5/6IdoezAJRJDAAJ4nneaq117AvxhUIQd0miNDln5eBA7HtyiExjAEgQpdSVcdf0fY9r/0R7VgEwZLsJok7jJ39CnLJ08YVKqdjvMnjkL9G4nGm7AaJOYwBICCnVTXHXdF2Xz/0Tjc+pKwcHmJYpUxgAEuC0FcuWRVE0L+66XPsnGrcuAEttN0HUSQwACRBF8uNx13QcB77PM/+JJmCl7QaIOokBwLLTT11RjaLwiLjrBgHv/okmiAGAMoUBwLIwDD+ilI71IXwhBN/4RzRx+6wcHFhouwmiTmEAsCyK5NvirsmDf4jadoLtBog6hQHAohVLFp0upeyNuy7v/ona9hrbDRB1CgOARUrpv4i7puM4cF0++kfUJgYAygyhtbbdQy4tPunECoBtWse7/l8oBHztL1H7IgA969ZvGLPdCNFkcQbAEs/z3hf34A+Aj/4RTY4H4BjbTRB1AgOAJVrr8+Ouyel/oo54re0GiDqBAcCC009d0S2lXBB3Xd79E3XEUbYbIOoEBgALoii61s70vxd3SaIs2s92A0SdwABggVLqvLhrcvqfqGMYACgTGABitnJwoBxFct+463L6n6hj5q0cHOBnJ6Uev4lj1mw2z1FKxT79z8N/iDrGBzDHdhNEk8UAEDMp5blx13QcB47D/9REHcRlAEo9jgoxk1IeF3dNz+PmP6IOYwCg1GMAiNHyxYsOlFJ1xV3X87j5j6jDGAAo9XhrGCv9XhtVufufJmLulACLDu5BKXAQeA4EgPsfGcEDj41A8eTwHababoBoshgAYqSUPi3umlz/p/Ga3uNj6LipOHFBN17+tugTFnRj00iEDT/fgg0/H7bTYLKUbTdANFkMADFSSsX++B/v/mk8li/sxdtPnA7X2f0DKlO7PJzTPx2Vgouv/mhTjN0lUsl2A0STxQAQkxVLFh+qtY79WTyu/9OeeK7A+a+bgUUH94z7a95wbBXDoxG+88sXDHaWeJwBoNRjAIiJEIj99D+ATwDQ7lUrHt5z6mzMnz7x10O/46QZeGq4iV9tzO1bcTkDQKnHxeGYaK2Xx11TCMH1f9qlg2eX8Odv2retwR8AhAAuXjwTBS+3318MAJR6uf3pjZtS+tC4a/Lun3bllMP7cN3r56KnNLnloendPv7ktbndDM8lAEo9BoAYrBwcCJRS3XHX5fo/vVTBc/DOJTNx7l42+03E8sP6cMicXN4M5/I3TdnCABCDMAyPV0rFXpdPANAOC2YW8Zdv2RcnHTT+zX7jIQBcsiiXSwHtrZ0QJUjufmptkFKeaqMu1//JdQTe/Oqp+NCZ+2BGj5mHUKb35HIpgD9clHpcJI6BUvqEuGsKISBefpoL5crsvgCXLZuF/acVjNdaflgf/ufRGn65cdR4LSLqDKbYGGitDo67Ju/+80sAWHFYH256076xDP47al55ymzM6QtiqUdEk8dRIgZK6Vlx12QAyKfpPT6uOX0uzjtpOgIv3hmgSsHB1afPRV+ZE4tEacBRwrBFJ/ZPUUrFcxv2Eq7L/7R5EngCQ6+eipvP2g+Hz7P3hNq0Lg9XnTYHRZ/ff0RJx59SwzzPO95GXc4A5Mdx+3fh5rP2wxuPrcJ37e/72G9aAdefMRfdRT6FQpRkHCUMcxxxjJ26/E+bdTN7fVwzOBfvOXU2pnXH/pqJPZo/vYgb37gPpht68oCIJo+jhHkLbRRlAMiuou/grNdMxUfP2g9H7JPcA+lm9vi48Q37xLYRkYgmhrt1zDsg7oJ8BDCbAk/glMP6cPpRU9CVkun13pKLD525D/7xvudxzy+GbbdDRC/BAGCY1pgbd03e/WeL7wosPbQXZxxTRe8kz++3IfAEzjtpOo7et4Lb/vMZDI9GtlsiIjAAxED3xV2RASAbXEdg8SE9OPOYKqZU0v+jesQ+ZXzkLfvicz94Dvf9bpvtdohyL/2fKgmnlI79zHCnQy96ITsqBRevO6gbpx7el7jNfZPVVXTx7uWzcPpRU/AvP9qEnzxes90SUW4xABimtbbwCc4AkEaHzC5hyaG9OH5+F7wEPM5n0v7TCnj/aXPw6HN1fPVHm/GzJxgEiOLGAGCY1jr2RVvu/0uP7qKL1x3Ug8WH9GB2Do/RnT+9iKsH5+Cp4SZ++MgI7n9kBE9sbthuiygXGAAMWrFkcUFrHftwzCcAkk0AOHROGUsO7cFx87vgcckGs/sCnHlsFWceW8XTLzRx/yMj+OnjNTy5uYl6GP+rtInygAHAIK31/nYqc0BJop6Si5MP7sHiQ3oxkwfk7Nas3gBnHlPFmcdUoQFsGonwh80NPLm5iSe3NPC7Z+t45oXQdptEqccAYNZ8G0U5AZAcAsBh88pYckgvjt2/Apd3+xMi0Hq/wLQuD0ftW9n5958abuIL/+85PPgkXz9M1C4GAIO01vvYqMslALuqFQ8L55axcG4Zh80t8e14BszuC3DN4Fysvecp/OjREdvtEKUSP5kMEkJMsVTXRtncqhRcHDqnhMPmlrFwbgmzevO3mc8GIYDzTpqOnz5eQyi17XaIUocBwCAhkNyD2qltgSdw0KzS9jv8MvabWuCyiyV9ZQ/7TSvgt8/UbbdClDoMAEaJkpWqHI06qlJwMW9KgEPmtAb9BTOL3LmfIHOnBAwARG1gADBICGQ2ADgCKAUu9p0aoFJwEUqNMNIIpUIoNZqRRlNqbB2L0IySPz3ruwIzewPM6vUxqzfArD4fs7f/dVpevJNXDgMvUVsYAIyyMwNgwtwpPl6zfwULpgaY3uWg4Dnoq1b2/oUAag2JTSMRttQibN7+a8vIS/5/LTL+rHfgCZQCByXfxfRuD7P6XjrYB5ha8TiNT0S5wgBglpU/307NAHiOwBuO6sUJ+xURvOz9Qu4E3jdUKbioFFzsO3X374UfbSqM1CWaL5tFCOX2X9H2v7dzpkEjUhqF7QN70X/x146/Lm3//wXfAWfssyv580tEycQAQK8wvdvDnxzbhwOn+RA6no/XcuCg/PKUQURExjAA0E4l38GqpdMwt9tp3VbFNPgTTQq/TYnawgBgVmomnk84oIKzj+6BA80PVCKiHGAAyLnAE7hy8TTs1+uCIz8RUX4wABiV7AH1VdMLuOJ1Vbgi2X0S7Qm/e4nawwBgVmKXAA6a2Rr8uc5PRJRP3HadQwtmcPCnLOH3MVE7GAByZsH0Aq7k4E9ElHsMAGYlagmgWnZxxclVCN4xUYYwyxK1hwEgJ4QArhuY0XrMj4iIco8BICcuOnEqitztT0RE2zEA5MCC6QUcOdO33QaREYy1RO1hADArEXsALu6f0vmL8lOXiCjVGADMsh4AVhzSjTJPe6AsYxglagsDQIa5jsDpC7tst0FERAnEAJBhAwu74fL2iIiIdoEBIMNOPqBsuwUi4xhxidrDAGCQ1vb2AMzs8bj2T0REu8UAkFErDu623QJRLDgDQNQeBoCMOmx2wXYLRESUYAwAZllZAqgUHHT51p9AJIoHXwZA1BYGgAw6YX4Fmh+KRES0BwwAGTS/GthugYiIEo4BwCwr8/B9Zf5npfzgXBdRezhSZFB3gf9ZiYhozzhSmGVlBqDEDYCUI9zuQtQeBoAM8h0GACIi2jMGgAzi+E9ERHvDAGCWpaGYc6JERLRnPC0+4Yq+g/nTitivWoDrvjJPjNQlfvPsGJ4abnLYp9wrBw7mV33M6vEgdhG/h0cVHt3cxKaajL85ooRhAEiYroKLo/apYMH0EhbMKGLulMK4pvRrTYnfPVvHb54ZM98kUYK8alqA/Xp6ccBUHzO6vXFNu21rKPx+UxOPbg7x62ebeHI4NN4nUdIwAJg17iWAasXDaYdNweKDe1HwJr4yUwlcHDmvgiPnVSDARQDKj5Pml9FsTGwA7y44OGJOEUfMKQIAfvt8E/f8uoZfPdMw0SJRIjEAWDanL8DpR1TRf0A3XO7eI2rD5OPugmkBFkwL8IcXItzz6xH85A91KKZoyjgGAKN2/wkiBPCmY6fhjCOrBnYKcg6AqB1zez2c/5o+LB8Ocft9w9wrQJnGpwDM2uXY3lVwcc2p87DSyOBPRJM1r8/HNcumYuEsvlabsosBIGb7Ty3iz8/cF4fNKdtuZVI4v0BJYep7sew7eOeJUzB4aNcunyggSjsuAcToiLkVvGf5HPi7eJyPiJJHADjt0C7M6fVw+33DPHaYMoUzADGZ2RPg8iWzOfgTpdCRc4p4/cJu220QdRQDgFkCaB3m897lc1AO+MdNlFanHFzBUXOLttsg6hiOSGYJAeDSk2dhTl9guxcimqS3H9eLWT1cOaVsYAAwbMXCPhy3X5ftNoioAwqewMUn9MF1+AAPpR8DgEF9JTcYPLxquw0i6qAZXR4WzS/32u6DaLIYAAx6+7F9R1dcZbsNIuogJRWWzfdn/OxjZ/Hzk1KN38CG/OxjZ7kHVP05YTOClAwBRFlRH2vCgRae711luxeiyWAAMMTz3T8V0A4ANMYaPDmHKAPqYw0o1Qr0SqlrLLdDNCkMAIZojfN2/H+lNOpjfMsYUZrVRxuIwhffDaCkmvnQ2nOmWmyJaFIYAAzRSu330r+OIon6KEMAUdporTE22kAUvfLFQEqpN1hoiagjGAAM+NnHzqoqpSsv//sMAUQGGFxek5HEWK0OuYvBHwC00qeYq05kFgOAAUKIQ3b3z6LtHyiKLxsnSi4NNOpNjI029vizqoGDY+yKqKMYAAxwXefAPf1zKRXGamMIm1FcLRHROIVhhNHx/3zyoA9KLZ5paYAQYv+9/Tt6+x1GFEkUCj4cl1mMyKYwjBA2wonOzvGYT0otBgADtNYvjPfflZHEaCThei6CwIPruSZbI6KXkFIhCiWiKIJuZ1lOI+x8V0TxYAAwQCn9PxP9GhlJjEUSjuPA9Vx4ngPHdVtvExonrTQiKREE/kTLE6VWawCXcF0HYi8/MEoqKKUhpUQUSmg9ub04QuCZSV2AyCIGAAOUUg9P4muhmgphs/XXruvAcRwIR0CI1i+I1qNJWmtAAUprKCl3Tl0yAFCeRFG08+maHT8rOwi0HhLQSpnaePuYiYsSxYEBwIxnhRCh1nrSI7GUikcJE42TUgqI88dFiB/GWI2oo7jzzIAjr/6ydj3nN7b7ICJzhBDwfPd2230QtYsBwBDXcz9rrTjfVE5knOs5zx787js32u6DqF0MAIb4vvdxx3WatvsgyjxLZ2o5jvO3dioTdQYDgCEHXHpH5DrO3bb7IKLOcxwRBQX/I7b7IJoMBgCThOD7wokMszEB4LjOtw+49I5dvyCAKCUYAAw6dNUXH/V8l7uEiTJEOEIJIS633QfRZDEAGBYUglNc16nZ7oOIOiMI/A8cuuquR233QTRZDACGLXjX517wA2+ZcAQf5idKOT/w7j74ijv/ynYfRJ3AABCDg9595/2+711tuw8iap/nuU8WisFK230QdQoDQEwOufKLn/AD72u2+yCiiXMcp+H53qsPuPQOzuRRZjAAxOjQVXcNeb73j7b7IKLxc11ni+e7xx307i/wxT+UKQwAMVv4nrveGhT88xxHRLZ7IaI9833ve0HBn3HIlV/8he1eiDpNTPZ1mNSeh//u3P2jMLo3CuWsTl+7u6/S3rvNJ8BxHfRMqRitQTQezz89vPNtgJ0iHKGCwLvx4Cu++NGOXpgoQTgDYMlBl3/h98VSYR8/8D4tBJ8QIEoK13UeKRSD4zj4U9ZxBiABHvzE2X2O46xRSp2rpJr0bXVPX8XUu8934gwAJUUnZgCEENp1nf8BcO3C937pu53pjCjZGAAS5te3vv0iGan3ykgu1Fp7E/16x3G2dvWUupXSRt8JyABASbHlua3Pjo7Up2mtJzyj6brOM67n/qvrudceeNnnN5nojyipGAAS6mcfO8txHGelcMQZ0Po4DeyntS5CQ2D7C3+FEA3hiC0AHgLwXSXVZ4+46p+e/f2nLwiVmnh4mAgGAEqQwScfeebfXdcZgBBnATgGWs9VSpfRWubUALQQkEKI5yHEL6D195VSnz3iqi8/a7d1InsYADLo97df2FRS+SZrOI5AT7XLZAmi8RqsDq39lu0miNKGmwAzSAhRN13D9B4DogkIbTdAlEYMABkkBGJ5+RBnjygheEAPURsYADJICLE1jjqmzxogGqenbDdAlEYMABkkHLE5jjqKMwBkX7M6tJa794nawACQQUKI5+KowxkASoCnbTdAlFYMABkkRDwfigwAlACc/idqEwNABgkhnoyjDpcAKAEYAIjaxACQQcIRP4ujDmcAKAEYAIjaxACQQUKI++KooxXfYUTWMQAQtYkBIINmnv33TwkhjN+ey4gBgKx7zHYDRGnFAJBRjiOMHwYkJQMAWfeA7QaI0ooBIKMc14llIyBnAciiOoBf2W6CKK0YADLKccSDcdSRUsZRhmhXflodWhvZboIorRgAMsrxnP+Kow5nAMiiH9tugCjNGAAyyve9rwlhvg4DAFn0P7YbIEozBoCMmvaWWx9zXLdhuo7iEgDZwxkAoklgAMgwxxW/N11DKc0DgciGJoBY9rkQZRUDQIY5wvnvOOpEEWcBKHY/rw6tDW03QZRmDAAZJhzxtTjqRE1uxKbYfc92A0RpxwCQYa7rrIvjRMAw5AwAxe6bthsgSjsGgAyb+da/l47rbDZdR0kFxVMBKT5bAXzfdhNEaccAkHGu53w3jjqcBaAY/RvX/4kmjwEg41zX+es46nAfAMWI0/9EHcAAkHGzz/nUfa7nGn8xUMQZAIqHAnC37SaIsoABIAfcGI4F1lozBFAc7q8OrX3OdhNEWcAAkAOe5/7fOOqEXAYg8zj9T9QhDAA5MOttn7zb9dym6Tphg/uyyLiv226AKCsYAHLC85z7TddQSnMWgEy6vzq0lsf/EnUIA0BOOK7z0TjqNDkLQOZ8ynYDRFnCAJATs8/51HrXdYw/DRA2ImjNlwNRx20F8CXbTRBlCQNAjjie84046jTrnAWgjruzOrTWeIAlyhMGgBxxHOd9cbwbgMsAZACn/4k6jAEgR+ae+w/P+oH3E9N1ZKQgI74bgDrm/urQWuPft0R5wwCQM17gXgdhvk6jbvypQ8oP3v0TGcAAkDOz3vrJf/d97ynTdZqNEEpxMyBN2jC4+Y/ICAaAHPJ894PGi2igMcZZAJq0/8PNf0RmMADk0OxzPvVZz3c3m67TrDehOQtA7dsE4BO2myDKXLcH0wAAIABJREFUKgaAnHI992bTNbQG6pwFoPb97+rQ2m22myDKKgaAnJp77j/8dRwHAzXrIQ8GonY8C+AW200QZRkDQI55vvtx0zW01twLQO24uTq0dtR2E0RZxgCQY3PPu+1Gz3M3ma7TGOMsAE3IRgB/b7sJoqxjAMg513fPNn0ugNYa9RpnAWjcPlIdWlu33QRR1jEA5Nzcc//h277vfcd0nUa9CRlJ02Uo/X4D4DbbTRDlAQMAQQNDjiOM36KPjjRMl6D0e1d1aC2ni4hiwABA2Pf8T291PfdG03VkJPmmQNqTT1eH1n7XdhNEecEAQACAfc7/9F+5nvO46TpjtQYPB6JdeQbAn9pugihPGADoJcQbARgdnbXWGBvlUgC9wqrq0NottpsgyhMGANppvwtvf8D13H82XadZDxGF3BBIO62rDq39su0miPKGAYD+iIzkuY7rGL8TGx2p82wAAoBtAN5tuwmiPGIAoD9ywKV3ND3fHRRCGB2dlVQYHeGj3oTrq0Nrn7TdBFEeMQDQK8w777b7gqJv/CS2sBGhwacC8uwr1aG1t9pugiivGABol0qVwhV+wXvEdJ16rQ4ZKdNlKHkeBnCh7SaI8owBgHapOrRW+753nOs6Rl/IojVQ2zbG/QD5MgrgzXzVL5FdDAC0W7Pe9slh13eXCSGM3qIrqTDGUwLz5J3VobUP2m6CKO8YAGiP5p13232u515tuk6zEfKUwHz42+rQ2jttN0FEDAA0Dvte8OlPuJ7zFdN1RkfqCJuR6TJkz30ArrLdBBG1MADQuMhIneV6zg9N1xndVudbA7PpGQBn8UU/RMnBAEDjcsCld2gZqRNdz3nUZB2tNUa2jkFJPhmQIcMABqpDa5+w3QgRvYgBgMbtgEvviAAc4XrOJpN1tGqFAD4ZkAmjAM6oDq39qe1GiOiPMQDQhOx34WdqrucebvrxQCUValvHwAyQaiFaj/v9wHYjRPRKDAA0YfPOu+1pv+Cf4LiO0R17USgxum3MZAkyRwE4tzq09lu2GyGiXWMAoLbMefunfl4o+qc5jjC6Yy9sRpwJSKfLqkNr/8l2E0S0ewwA1LbZ53zq257vLRdCGJ0JaIWAUe4JSI/rqkNr/8F2E0S0Z4IfqjRZj3/2oiOVVPcqpcsm67iei67eEoQQJstQ+zSAa6tDa//adiNEtHcMANQRj33mopnQ+mdSqhkm67ieg66eMoTDEJAwEYCLqkNrP2+7ESIaHwYA6phH/uH8guu5P5aRXGiyjuM66OotwXG4gpUQNbQO+VlvuxEiGj9+glLHHHDpHQ0ZycM9391gso6SCiPDo4h4YmASbAKwnIM/UfpwBoCMeOKOi9eGzegK03XKXUUERd90Gdq1x9A64e/XthshoonjDAAZsc/5n77SL3jvF0IYTZijI3WMjtRNlqBd+z6AEzj4E6UXZwDIqCc/f8lpMpRfk1IVTNbxfBfl7hIcbg6Mw/9B61E/vrqRKMUYAMi4p7/0rqlhI/p22IyOMlnHcQTKPSV4nmuyTJ5tA3BxdWjtl203QkSTxwBAsfnD5y+5ptmM1miljY7QxXIBxXJgskQe/RKtc/0fst0IEXUGAwDF6snPXbKPlOo/ZCQPMFnH9VyUu4twXW5z6YA7AbyrOrS2ZrsRIuocBgCy4vHPXvxXMoqu1trcRlQhWrMBhRJnA9r0DIDLq0Nr/8V2I0TUeQwAZM1jn7nwSK3xLSXVbJN1PN9FuasIh7MBE3EngPdUh9Zutt0IEZnBAEDWPXHHxR+WkbxBKe2ZqiGEQLEccDZg7zai9Sa/dbYbISKzGAAoETbeeWmfknpd2IxeZ/J70nEdlCoF+IGxrJFWCsBnAFxTHVo7bLsZIjKPAYAS5ekvvWt52IhuC5vR/ibreL6LUqUAl48MAsA9aA38P7XdCBHFhwGAEunJz1/yJhnJW2WkZpqsExR8FCtBLl8spJV+SjjiourQ2m/Z7oWI4scAQIn2+GcvukwpfbOSqs9UDSGAoNjaH5CHkwSV0qiPNvDbF4JPL7ny1kts90NEduTvtodSZd8Lbv/7X28JLm3UQwhDg7PWQGOsia2bRzA6UoeUykgd25RUGBupY9uWETTrIWrSm2q7JyKyhzuhKBXCZoiwGW5fuy8CGjAxe9Wsh2jWQ/iBh0IpgOenf4+AjCTqY02EDR7dT0QvYgCgVIlCiW3DNbiei0pXERqAVp0PAmEzQtiM4HouCiUffuBDpGx1IGpGqI81EYXSditElEAMAJRKMpLYOlwDBFAqF+D7HpSBICAjidFtEkI04Bc8BAU/0bMCSio0GxGajRAqo0sZRNQZDACUbhoYqzUwhsbOw34832stD3QwD2itdy4POI6AX/ARFLxEPEaotUa4fdDn3T4RjRcDAGWG1hpjtQaARus9AKUCvMADtEYntwsopdEYa6Ix1oTrOvALHjzfi3VmQCuNMGwtU0RNaWQ/BBFlGwMAZZLWwNhoAxhtAGi9FCgIPAghOrrLX0oFOdoE0IQQAp7vwgtc+L7X8XcPyEgibEqEzQgy4p0+EU0OAwDlQn20gfr2MOA4DoJiay3fEQK6Q08UaK13bh4cQwOO48ALXHieC9dz4LjuuDcSaq0hI4UokpChRBRJI5sdiSi/GAAod5RSO8PADo4rUCi2ZgkgsPMxw8lsLFRKoVlXaCLc+fdc12mFAc+F6zhwHLHzSQalFGSkICOZ2bMIiCg5GACIACjZunt3XzZt7zgCwnGw48ZdY/vmwlfcyW9PDdj5L774t1/6L2uNMJQA1+2JyDIGAKI9UEoDiuvtRJQ9PAqYiIgohxgAiIiIcogBgIiIKIcYAIiIiHKIAYCIiCiHGACIiIhyiAGAiIgohxgAiIiIcogBgIiIKIcYAIiIiHKIAYCIiCiHGAAo8eraK9vuIYuUFgXbPRCRPQwAlHhbZGFf2z1kUV05M2z3QET2MABQ4o0qbz/bPWRRU7kzbfdARPYwAFDi1ZV3oO0esijUzoxVq9eUbPdBRHYwAFCirVq9ZkFdua+z3UcWaSAAcLntPojIDgYASrobALi2m8iw61atXlOx3QQRxY8BgBJr1eo1RwE413YfGTcDwPW2myCi+DEAUCKtWr1mIYB/A+/+43DDqtVr3m27CSKKFwMAJc6q1WsOBfAdtO5OKR5rV61ec4ntJogoPkJrbbsHIgDAqtVregFcB+C9AHYe/jPbr+GM8kPG63u+h2IpMF4nKf5zeCZ+vK368r/9DQAfvOWm639hoSUiihEDAFm3avWaeQDOA3ANgFeMSAwAZuwmAACAAvA5ALfectP1P4y3KyKKCwMAWbFq9ZqZAN4C4K0ATgIgdvfvMgCYsYcA8FK/BXAXgLtuuen6X5nviojiwgBAsVm1ek0VwJsAnA1gKca5wY8BwIxxBoCX+glaYeBLt9x0/eNmuiKiuDAAkFGrVq/pBvAGtO70TwXgT/QaDABmtBEAdtAAfoBWGPjyLTdd/1xHGyOiWDAAUMdtP172DLQG/dMBFCdzPQYAMyYRAF4qAnAPWmHgX2656fptk26MiGLBAEAdsWr1mgDAaWgN+isBdHXq2gwAZnQoALxUHcA3AXwRwN233HR9o5MXJ6LOYgCgtq1avcYDsBytNf0hAH0m6sz0RnFmxfz+M+sBwPUheuZAFLoBsds9kZOnIoiwhh+90IeHaj1GSjhCjJSKxe/MnjF1/eLXHnt/4PvKSCGi9oQANlar1S22G7GJAYAmZNXqNQ6Ak9G6038LgGmma0716nhTxfxj6TYCgLP/icDsoyGLVSiDP4pBECAIAvi+D8fh+V9E29UA3AvgawD+qVqt5mo/CwMAjcuq1WtOQGvQPwvAnDhr97kNnNX1oPE6cQYA0TUDOPYdiJxJbY/YK8/z0NXVBdflicpEe7EJwJXVavVLthuJi2e7AUquVavXHIPWoP8nAPa31cdWma11eeeQQUSzXw3T4btcLqNUKhmtQZQhUwHctXnz5jcDuLxarT5vuyHTGADoj2x/Cc/ZaA38B1luBwCgIFpr4hmYrXJOei9Cv9vo70UIgZ6eHngef7yJ2vAWAIs2b958RrVazfRJmPyEIKxavWZ/AOcAeBuAw+12s2saAgLpDgDu4W9C0+82XqdSqXDwJ5qcGQC+sHnz5qOr1eqY7WZM4adETq1avWYaWlP75wA4EXs4ijcJIuHB102jNUz+AYgp+yKcfpjxWYwgCFAoFIzWIMqJgwCsQevlZJnEAJAjq1avqaB1Kt85AAaQov/+m2QZs4TZAGBwUh448hzja/6O46BSqRitQZQzqzZv3vy1arX6XduNmJCaAYDas/1Z/VPRGvTfCCCVI8RjYS9mBcO222iLu/AMNIX5H7VyucxH/Ig6SwD4JBKyH6rTGAAyatXqNSeiNej/CYDpltuZtF/Xp+C1wWO222iLmnZwLHWCIFtPSxAlxIHb9wL8xHYjncYAkCHbd/Cfs/3XfMvtdFRDuxgVJZS1yf04BqbovQKkWzK+9u95HoTJ0wOJ8u0MtN6GmSkMACm3avWaeWg9svd2AEdbbseoB+qzcFLhUdttTIjonWd87R8AD/ohMusQ2w2YwACQQqtWr5kC4M1oDfqLkfAd/J3yy3oV/aUn4KjIyPW1gbN4RdeMjl9zV7j2T2RUrKefxoUBICVWrV5TROste+eg9YrdXC74/rI5A4d7G41c28Sduih07KWIe8QAQGTUFNsNmMAAkGCrVq9xASxDa9B/EwAzr25LkXtrs3HwlOfhq84/Emhipl7nY3KGKOsy+YPMAJBAq1avOR6tQf+tAGZZbidx7qnNx2Dp1x2/Ll+MRUR5wgCQEKtWrzkQrUH/7QAOtNxOoj3Z7MIfilXMFZs7fm0pFVyX0+lElH0MABZdcPXqYwF9TblUWug6zlG2+0mTu7fOx9v66ujSox29rowkAwAR5QIDQMze8f4bDgFwo5TydAC9vd1dwuUGrrZ8+YWDcW7fLzq6HyCKJIKC37HrERElFQNADN7+ng/s67jODUqqoUjKaQBQCAL0dFV4eMskRNrBl184FGf1/qpjIUBJBa01/7sQUeYxABhyznuun+s67rVKqbMiKWdDyp3/rKtcRrlUtNhddtSUhy8MH4azeh9CV4dOCZSRgufzYB0iyjYGgA664OrVB2mlro+kfL2UaoaU6o/+uRACvd1dCHxOMXdSpB3cNbwQZ/Q8gtliy6SvJyPJAEBEmccAMEkXX/tnfUqpj4VRNBSG0W4PixBCoK+nG77HP3JTvrn1AOxX2Ipl5d/DU2Hb14miCIH2uQxARJnG0ahN5773g/0Q+EQUyeO11nsdKXq6Khz8Y/BYowefaRyJJV1PYoH3PISWe/+il9EaCJsRNwMSUaZxRJqgC69ZfVgUyTvDKBr3Y3s9XRUU+KrWWP3HyDz8B+bhmPKzOKLwLAqqMaGvZwAgoqxjABinyz74lweO1RufazSbJ0zkxLiuchnFQsFgZ7QnD4zOwAOjM9DrNnBk6Tns621FGfW9nvurtUbYjOAH/BEhomzip9tevPP6m9wwir7QaDTPlkpNaFG4VCxwt39CvCAL+P7IPACtQ70PLm7BwYXNmOqMwN3N2wWbjSZcz4XjcC8AEWUPA8AenPe+D71RKXVHJOWEX8LjuS66ymUTbdEkaQAP1afgoXprz2YgJPYPtmJesA3T3FF0iSY8HUFrjUa9iVKZMzhElD0MALtw9hXXCt/3vhyG0ZvbvQYP+UmPpnbxcGMKHm68+BCHADDdG8VcfwThmI+KJ9HthehxQ3S5EXyh4DsKvlDwBF8iRETpwwDwMpded9O0wPfvb4bh/HavUSmX4HHHf6ppAM9GZTwb7X0WRwDwHYVAtM59iLSA1AKRdnDyrKk4eo7ZXomI2sFR6iXe9YG/OG20Xv+XKIraXrj3PQ+VUqmTbVHCaQBN5aAJvtOBiNKDn1jbXXLtn52/baR292QGfwDo7qp0qiUiIiJjOAMA4IKrbryy3mz+3/Ec6LMnpUIBnssjZImIKPlyPwNw7vs+uHqs0bhlsoO/EEC5zKl/IiJKh1wHgHe8/4bzwzD6805cq1QownVy/cdJREQpktsR6+I//bP+MApv78S1hBA88IeIiFIllwHg3R/6yPxGs/ldpXRHfv+FIIDDu38iIkqR3I1aq1avEbWx+n+FUdSx492KBb7oh4iI0iV3AWCkNvrJeqPRsaNZHEcg8PnWOCIiSpdcPQb4jvffcHIzDC/p5DULAc+JJyKi9MlNADj7imtLjuN8c7KP+70cp/+JiCiNcrMEEPj+x5VSE36r3564jgOfZ/4TEVEK5SIAvPP6m3ojKS/u9HULvPsnIqKUykUACKPoLqVUx2/VufmPiIjSKvMB4Mobb96v0QxPM3FtnvtPRERplfkAMFqvf1xK2dGNfwDgOA4P/yEiotTK9Ai2avWaQqPRXGni2rz7JyKiNMt0AKiNjn0kktLINn3PYwAgIqL0ynQAaIThu0xd23P5+B8REaVXZgPARdd8+PVRFHWZuj5nAIiIKM0yGwAiKTt65O9LCXAPABERpVtmA4CU8nWmru3y7p+IiFIukwvZZ19x7VQA00xdn+v/RESUdpmcAfB97w0mr8/1fyIiSrtMBgABcabJ63P9n4iI0i6TAUBp9WqT1+cSABERpV3mRrKzr7hWCCFmm7p+6wjgjp8sTEREFKvMzQAUC0G/1trY74vT/0RElAWZCwCAeJvJq3MDIBERZUHmAoDSarHJ63P9n4iIsiB7AUCqA0xenzMARESUBZkKABdcfWNXJGXF1PWF4B4AIiLKhkwFAEAMmby6y+l/IiLKiEwFAK3VgMnr8+6fiIiyIlMBQCl9nMnrc/2fiIiyIlNz2lKpfU1enzMARLSDlBLNZhNKKQRBsP2QMAdC8KAwSofMBIDzr7qhIqUsm6zheZn54yKiCQrDEJs3b8bY2BiiKIKUEgDQ1dWFYrG4899zHAdBECAIAvi+b6tdor3KzIgmhGP0BUCO48BhsifKnVqttnPg11r/0T8TQqBQKPzR31NKoV6vo16vQwiBUqmEYrHImQFKnMwEAK31aSavz/V/onwJwxAbN25EvV7f7b9TKBT2OLBrrTE6Oop6vb4zCBAlRWYCgFJ8AyARdUatVsNTTz21c5p/d8Y7oCulUKvVEEURKpUKZwMoETIzqiml9jN5fc4AEOXDpk2bsGnTpldM97+c67oT3hfUaDQgpUR3dzccJ1MPYVEKZeI78IKrbixLgycAAnwCgCgPtmzZgueff36vgz+AtgfwKIqwdevWcdUgMikTAQBCnGnyR0kIwQBAlHFjY2N47rnnxv3vu5P4TJBSYmRkpO2vJ+qETAQA0xsAJ/ODTkTJp5TCxo0bJ3RXPtkp/GazibGxsUldg2gyMhEATG8A9BkAiDLtqaeeQhRFE/qaTqzhj42NQSk16esQtSMrAWB/k9fnBkCi7Go0Gm1Nx3diDX/HY4JENqQ+AFx49eqSyVcAA3wEkCjLNm3a1NbX7e0RwfHa8WQAUdxSHwA0cIbpGpwBIMqmHc/nt/u1ndJsNjt2LaLxSn8A0HrQ5PVdvtyDKLOGh4fbHsg7edfOAEA2pD4AKKWON3l93v0TZddk1t+llB17lj+KIm4GpNhlIQDsb/L6XP8nyq4wDCf19Xt6T8BETfQpBKLJSnUAOP+qG4tSyS6TNTgDQJRdk53G7+Rz/JwBoLilOgAIIc4wfZomTwAkyiat9aQDgFKqY+v3PBqY4pbqAGB6A6AQgqcAEmVUpzbxdWoWgDMAFLdUBwDjGwA5+BNl1kTf5Lc7YRh25DAfPm1EcUt7AJhv8vpc/yfKtk7N8I2Ojk56QyFfD0xxS+133AVXry5IpcxuAOQMAFGmdXKJb9u2bZOaxmcAoLil+Tvu9aY3zfARQKJs69QyANBaw9+6dWvbewu434jiltoAYHoDIMAlAKKs6+rq7CRiFEUYHh6e8JMBrusyAFDsUhsAlFavMXl9HgFMlH29vb0dn3rXWmPr1q0T2hgYBEFHeyAaj/QGAGl6AyCn/4myznEclMtlI9ceHR3Fli1bMDY2ttdn/BkAyIZUBoB3vP+GQCrVbbIGNwAS5cO0adOMXVtKiVqths2bN6NWqyGKoleEgSAIeMNBVqTyu851nNONbwDk+j9RLhQKBZRKpY4e6/tyWmuMjY3trOE4zs51/7lz5xqrS7QnqZwBUFqfbroGZwCI8mPOnDmxbsJTSiEMQ5RKJd79kzUpDQBmNwDyCGCifPE8D7Nnz45142+pVMKMGTNiq0f0cukMAFIdYPL6vPsnyp9KpYJqtRpLLc/zOPVP1qUuAFxw9Y2+8Q2AXP8nyqVp06ahp6fHaA3P8zBv3jzOMpJ1qVt8EhCDPAGQiEyZPXs2SqUSnnvuuY6/oa9cLmPu3Lk89pcSIXUjndL69aZrcAaAKN/6+vpQKpWwcePGCZ/qtytCCFSrVaOPHBJNVAoDgNkNgAD3ABBR6/HA+fPnY/PmzXjhhRfaCgKO46CrqwvTpk2D7/sGuiRqX/oCgDK7AdB1eQQwEb2oWq2iWq1ibGwMw8PDqNVqe3zhj+M4CIIAPT09Ro4aJuqUVAWAi675sCel6RMAU/VHQkQxKZVKKJVKAFoH+zSbTTSbTYRhCNd1EQQBgiDg5j5KjVSNdlrrAa210dtzrv8T0d4IIVAoFFAoFGy3QtS2VM1NKa3PMF2D6/9ERJQHqQoAWqvXmq7BJQAiIsqDVAUAaXgDYOsI4FT9kRAREbUlNaPdO95/gyulMnpEF6f/iYgoL1Iz3+06TuY3AGoNRDKCAPiGMCIiMio1o0w8GwDt/HGMNRoYqzcQRdHOvydEq59yqYhCEFjpi4iIsis1ASCWDYAxzwAopbC1VkOzGb7in2kNhFGEF7aNoFgI0F2p8IAiIiLqmNTsAZBKvcp0jTj3AGgNDG/dtsvB/+XqjSaGt22LoSsiIsqLVASAODYAuq4b6x12bWwU0R6OE325MIwwWq8b7IiIiPIkFQHAdZ0VxjcAxnj3L6XE6NjEB/Pa6BiU4VchExFRPqQiAGilV5quEef6f/iSzX4TobX+o42CRERE7UpFAFBan2C6RpwzAO0GgMl+LRER0Q6pCACxbACM8bn7iaz9v+Jro/a/loiIaIfEB4CLrvmwI6XsNVlDCAE3znd2cxmfiIgsS3wA0NDLs34CIBERUdySHwDi2ADINwASEVHOJD4AKK37TdfgS4CIiChvEh8ApFILTNfgEgAREeVNogNAHBsAAc4AEBFR/iQ6AGjoZaY3AMZ9BDAREVESJDsAxLIBkHf/RESUP4kOALGcAMj1fyIiyqFkBwClDjRdg48AEhFRHiV29Dv7imuFEKLPdB3OABARUR4ldgagXCouMb0BMPYjgImIiBIisaOf1vpM0zV4909ERHmV2ACgVBwnACZ2BYSIiMioBAcA8xsAfc4AEBFRTiU2AERSTjFdg2cAEBFRXiVyDvzS625YWnCk8eP5Cp4DIbTpMq/AcweJiMi2RAaAM6pP/+/53gtGaziuQLnynNEau3PraBVPRL6V2kREREBClwD63ObBpms4gtP/RESUX4kMABUnqpiu4biciCciovxKZAAIEBkfnR03kb91IiKiWCRuFLzzo5dfAW1+Y57DEwCJiCjHEjcK9rjRBcaLCMBxuARARET5lcAA0DC/AZB3/0RElHOJGwkrTthlugbv/omIKO8SFwACmD8AiDMARESUd4kaCb+45vLLuAGQiIjIvESNhF0ivDCOOi7PACAiopxLVADoccNDTdcQAhCcASAiopxL1EjY5TRj2ADII4CJiIgSFQDi2AAoOP1PRESUnABw15rLL+EGQCIiongkZjTsEuElcdThGQBEREQJCgDdMWwABDgDQEREBCQpAMRwAqDgOwCIiIgAJCgA+IiM98K7fyIiopZEjIh33XzZxbFsAHQT8dslIiKyLhEjYpcTxbQBMBG/XSIiShfzd6gWJGJE7HbDhXHU4QwAxW10rB5LHR3DDBpRjr1guwETEjEidsWwARAAXG4ApJhtGo7nc0MpFUsdopzaaLsBExIRAAoxbAAUQrQeAyCK0dPPbY6ljpQyljpEOfVb2w2YYD0A/OOad10Qx/Qlp//JhrFGA2FkfnAOw5DLAETmfNN2AyZYHxXLQl4aRx0+/0+2/P4PT8dSp9lsxlKHKGceB/BD202YYD0AdLvh4XHU4QwA2fJv/3U/VAx356Ojo5wFIOq8K6rVaiZ/sKyPinFtAOQMANkilcLd//nfAMx+DyqlUKvVjNYgypnPVKvVTE7/AwkIAHFsAAQAl2cAkEWPPLERTzz9nPE6jUaDSwFEnfEkgPfbbsIkq6PiV26+7NxYNgA6fAKA7Pv6t7+PZgwbAmu1Gh8LJJqcGoDzq9VqJp//38FqAAic6LI46vAEQEoCpRQ+edfX8NjGZ1uPpRqsMzw8jHo9nkOIiDLmewCOrFar37HdiGlWR8YuJzwsjjqCGwApITRaMwFf+/Z/QSpzs19aa9RqNWzdupWzAUTjM4bWlP+SarX6iO1m4mB1ZCw6sjuOOpwBoKR57A9P4+/u+hp+8bvHUG+GxmYEwjDE8PAwarUawjA0UoMo5R4E8JcAjqhWq5/I6o7/XfFsFi8I6cbxigUeAUyTMaW7gtnTp2BqTxcqpWJn9/LrCE88/jgAoFgsolgswnOdju5ZEQCUbs0+aKURKQWlFB8ZpHHr7ir/NvC8zDxiorXWURQ1wzBsKqUkgJO3/+pYCQCPoXV+wA8B/LS/v7/Rwet3hLD1IXDRNR8O3jf7Vw3TL1kSACrdZdNPYE3IrQ9X8cSo39bXFoIAvd2xPDmZe4fsNwevmjsTaX4RWLFYRBAERvccENFeNQHcCeD9/f39idlYaG1ufEFl5Mw4PliFIxI1+FOvS73tAAAFDUlEQVTylQo+Vhx/BF41dwbSOvi7rouuri4UCgUO/kT2BQAuBPDgvffeO2C7mR2sBYBZfv2sOOrwBECaiBlTerHs1Yej4Lu2W2mb7/uoVCpw3fT+Hogyah6Ab9177703224EsBgAetzwmDjq8ARAGi/HEXj1ofOBFK+NO46DUqnEu36iZLs+CTMB1gJAtxvOiqOOw7sgGqfXHnZgqleLhBAol8sc/InS4bZ7772312YD1gJAxYlKcdThI4A0HnOnVzG1p2K7jUkJgoDT/kTpMQ/Ax202YG10DISK5TaFN0M0Hgv2mZX6x+KCILDdAhFNzNvvvfdeaz+41gKAgojleLKUf6ZTTEqF9h7LTAohBKf+idInAHCEreLWAoAE4jmflAmAxsFL+VKR67oMAETpdJytwvZmALQw/1o0IPXTumTetL7u1H+fcO2fKLXyFwAi7cRzMDlvimgvSoWC7RYmjXf/RKk1zVZhawFgRPuPxlFHyXTf2ZF522qjtluYNL7xjyi1nrJV2FoAGJXeujjqSH4w0l68wABARPbkLwBs9b2PxzFpqSJ+MNKeaY3UPy+a9j0MRDm20VZhawHg0mvWbomEZ/xTq/XaU9NVKO3CKJY9qcbw9b5EqXWvrcJWn316VpaejKOOTPmHO5n39ObEvKGzLVprRFFkuw0impiH+/v7H7JV3GoAeKZZfF8cE69hyA9G2rPfPP607RYmLQzjebCGiDrm6zaLWw0A7/jQrV9twDd+ey4jyU1StEdjjQYile4p9CiKuAxAlC5fslnc+vFnL+ji9XHUaTZ4d0R79uDvnkj18/RaazSbTdttENH4fKW/v//HNhuwHgCWX3P7XzdEYcR0nSiS0Cm/wyOz/vDcZtRTvlxUr9c5C0CUfBGAD9huwnoAAADXc082/hiWBsbGGvxwpD368UOxnE9lVL1et90CEe3Zrf39/b+x3UQiAsCx77njJz+szfgIhNl2lFRo1LkUQLu3eesIHnt6k+02JqXZbHJDIFFy/TeAa203ASQkAADAxTeuveH+sRlfNT0TEIURms10T/OSWQ8+8gS2jjZstzEpo6OjkJKPvxIlzJMAhvr7+xPxAZOYAAAAl3zoljf/Luz7vOk6zXoTjUYTXAyg3fmvn/4KjZSfH1Gr1fj0C1FyPAvgzP7+/sQ8c5yoAAAAQ9d96h1P6e5PaGH29aZhI0K91gCPCaRd0Rq45/6fY/O20dQ+GaC1xsjICA8IIrLvJwCO7+/vf8B2Iy+VuAAAAAPX3P7+Lz9/wKFPyp4tJj97pZQYrdV5UiDt1r0/fxi/efKZVIeA0dFRNBqJmHEkyqO7AJzU39//uO1GXk4kfVf85z+y6rQFxeGvdqFeMtmp4wr4fgDfdwHDn/W3PlzFE6N+W19bCAL0dnd1uCPam2Lg4/iFr0JvpZTaJ0kcx0GxWITvt/e9R0QTch+Aa/v7+79nu5HdSXwA2OFv//w9J80pjt0+2x99VUU3XVNdO0LADTx4rgPHdYzc+TEApFdfVxlHHbQ/ukuF1AYBz/MQBAE8z0vtzAZRQjUAfAfAp/v7+79iu5m9SU0AeKlv3HzZTOnIvysK+douJ6yWHBl4kI4AIKABaHRqh5/jOnB3hAEICEdAAK0PToG2PkAZALJhzvQpmD97BirFAlzXgeuIVIUCIQRc14XneXAcZ+cvhgKicdmC1q7+PwB4HMA9AL7V39+/zWpXE/D/AYVy+duNM+9eAAAAAElFTkSuQmCC;" vertex="1" parent="1">
          <mxGeometry x="42" y="260" width="40" height="40" as="geometry" />
        </mxCell>
        <mxCell id="3eWW4N3rXiygS2KMkPMq-8" value="" style="rounded=0;whiteSpace=wrap;html=1;dashed=1;dashPattern=12 12;" vertex="1" parent="1">
          <mxGeometry x="42" y="310" width="188" height="100" as="geometry" />
        </mxCell>
        <mxCell id="3eWW4N3rXiygS2KMkPMq-9" value="&lt;font style=&quot;font-size: 14px;&quot;&gt;User Operation&lt;/font&gt;" style="text;html=1;strokeColor=none;fillColor=none;align=left;verticalAlign=middle;whiteSpace=wrap;rounded=0;" vertex="1" parent="1">
          <mxGeometry x="90" y="280" width="130" height="30" as="geometry" />
        </mxCell>
        <mxCell id="3eWW4N3rXiygS2KMkPMq-10" value="Book Ticket" style="rounded=0;whiteSpace=wrap;html=1;" vertex="1" parent="1">
          <mxGeometry x="62" y="335" width="140" height="50" as="geometry" />
        </mxCell>
        <mxCell id="3eWW4N3rXiygS2KMkPMq-11" value="" style="shape=image;verticalLabelPosition=bottom;labelBackgroundColor=default;verticalAlign=top;aspect=fixed;imageAspect=0;image=data:image/png,iVBORw0KGgoAAAANSUhEUgAAAgAAAAIACAYAAAD0eNT6AAAABHNCSVQICAgIfAhkiAAAAAlwSFlzAAAOxAAADsQBlSsOGwAAABl0RVh0U29mdHdhcmUAd3d3Lmlua3NjYXBlLm9yZ5vuPBoAACAASURBVHic7N15mBTluT7++6leZmFWNnFhjYC4saqAS9S4xThoTDR7NJ6oiEoARRbNL32OygxiUKOiEPPLdnLlSHISBRI1UUkUIcZZQEVFlF1AgZnp2Zfuer5/gDlGWXp6qvqtqr4/18V1PDBVdU+mp9+736p6CyAiIiIiIiIiIiIiIiIiIiIiIiIiIiIiIiIiIiIiIiIiIiIiIiIiIiIiIiIiIiIiIiIiIiIiIiIiIiIiIiIiIiIiIiIiIiIiIiIiIiIiIiIiIiIiIiIiIiIiIiIiIiIiIiIiIiIiIiIySUwHIHLagnW7eyQ1MshORgYLdJBY2l9t6QtBL8DuBZVeECkENO/AJoUAwgf+uwlAJ4AEgHoF4rL//35kQXar2jtErF0qeB8hfW/OqSV1Jr5HIqLuYgEg34qpWrnrakdAwyNV9VQAH/85NoMx9gLyNgSVAlRawGszRxW9JyKawQxERF3GAkC+EVupuZHS+gkh2zpToRMFmKBAielcn3ZgxqASwGui9ppQuOPFmSP7NZvORUT0SSwA5Gl3r6sfHE7gQgguAHAxgCLTmdKQAPRVQJZbGlo2a2zh26YDERGxAJDnzF/XMNxO6tVQvRqCk03ncZxig4j8CXbyj7PGlr7C0wVEZAILAHnCgnWNfRN28hpRfFOBUabzZNBGCH6elMSv7hrV+wPTYYgoe7AAkDExVSunJn4+gBsAXA4gajiSSTaAFwX662hb0+9mTOzfajoQEQUbCwBlXKxyZ35OqMe1UJ0O4HjTeTxon0IfRWfoJ3PPKNpnOgwRBRMLAGXMvW80HWUlErdCMRlAL9N5fKAZIkssK7Fw1sheO0yHIaJgYQEg1817taGXhJO3AjIDgkLTeXyoA9An1Q7Nmzuu6B3TYYgoGFgAyDWxmrqSqOI2UfkBB35HJKHya1vDc+8c12OX6TDkX1eM10G2YIoKLgEwGAAg2KSKZ21g0Z9Xy1azCSkTWADIcTFVK7em/tsKWQCgr+k8AdQM1fvbG0oqYudJm+kw5C+TJuodCvwXgJxDfEk7FHctXyP3ZzIXZR4LADnq3rV151m2PABgpOksWWC7QO+aNbrk11xLgFJRdqYugOL2VL5WFAuWrZE73M5E5rAAkCPmVTf2EU08AJFvmc6SbUSxEqHkrbNH9VpvOgt5V9lEvRzAU13ZRgSXL3tFlrkUiQyzTAcg/yuvqb9KkFzPwd8MFZyndqimvKoutnSphkznIS9SAVDR5a2069uQf3AGgNJ23z+b+iXDiZ8BuNR0FvqYvhKy5Zo7xpW8bzoJeUfZeB0DC1XpbJsERv95tax1OpMbHvzgpuFq42woRqjKCZaFIapaDKAH9j9HpAFAs4jEFfq+qLyjou/YYr1023GPvms2feaxAFBaKqriF6vYPwfkaNNZ6DNaAfxn++jiBTER23QYMu+yiXq9AEvS2lhw/fJX5AmHIzkipjGreNuH50P0W4BcBOCYbuzuAwH+Imr9pm5An5UxiQX+d4cFgLpk4ertee25hQsB3Ai+frxN8ZdQMnzNHacX7DYdhcwqm6izkMYpAACAYs7yNeKpUwGLtt5U2mHhVlW9HpDjXDjEdkB/mqPyyJSBj9W5sH9P4Bs4payisnaAWtbvAZxmOgulSnaqjSvnjit+1XQSMqfsTP0+FD9Na2PB95e/Ij9zOFJaKt6/oTgnGpoDG1MytLZIA4BHQ+3hiqlDH27IwPEyihcBUkrKq+KX2JZVAw7+PqPHiKV/n1dd/x+mk5A5Yqd3/h8AVFDpZJZ0Ldw6pSwnYr0JxawMLixWBGCOnZPY8ODWKd9VDdaH5kB9M7HN1+YWh3PHC+QcKEZAMFwV/fCJC0AEaFHoToG8C2A9YL1ktVuvTh36cLvZ9N5VUVM/VxV3w4eFMaFAU1LRklS02EBbUtFmKzpU0GkrOhRQKGwFkgqEBCgJCwbnhXBUNFC/HlDowx3xkhmx8yRhOgtlXtlEfQvAiC5tpHhr+Ro5yZ1Eqbl/5w29rc7wL0XU+MXGKlgRFevaW457NBAP6fL9O9ziyhsizX0jlwrs7wL4IoC8NHbTAsgKgf4m76PkMzeOW9LpcExfWlypkbpQfLEqvmc6SyqSCtR3KmoTNuJJRWMn0Gor0l0h5/j8EIbn+67zHMnfFaGr5o4p3GM6CGXWpDN1kiqe7tJGirLla2SFS5GO6KGtU86yxf6tS+f507XdsuXrPxi0aLXpIN3l2wKweOcN+a2d1vdV5HYA/R3bsWArgB8rcp+Y0f+BrH0m+/xVewrt/MiT2F+qPEkB1CcUezoUezptxDvTH+wP5bSiEPpGg1UCBNhs2biQtwpmn8sm6nwBUlvdT1Cx/BWZ43KkQ3pg201XCPBbBXJNZTiMDlX9zoyBjy81HaQ7fFkAFm6dUiaijwAY4OJhPhCVudMGLvqVi8fwpHsrm4+2pPMvEJxsOsun2QD2ddrY2ab4qNNGh8s36vSKCsYXhd09iBk71LYu5NMFs0/ZBL0dgrtx6IG1TYE7V6yWhZnM9UkLt900WYBH4e3TjklRvXnawMcXmw6SLl8VgJ/surVPMpH4ORRfyuBhlyfDyetuP2bJ3gwe05gDV/o/D2Co6Syf1JhUbGu1sbPdRkcGV70PC3Bxr0jmDphBCtTClkt5h0D2KTtLB8DGFACXABhy4K83QfCMFcKip1+S7aayPbj9pm+r4lfwx/ikCvzHjAGP/dx0kHT44X9gAMADWyefCZEnARyb+aPrDsu2vhaEcz6Hc/e6+sFhG89D//WGYJStwM52xda2JOoTZp51E+QCcEATFJfPGVvyoukgRA9unXyZivwRgJ+m3TohuHx6/8eeMR2kq3xRAB7cdtMkBf4H6V3g55R2qHx7+sBFvzeYwTX31cSHJhV/A7Q7K2k5otMGtrbb2NJqo902+5C7XhHB+GI/vRelpUVUrpw9tvg500Eoey3cPuV4Ua3C/ju2/KZJQhg37djHNpgO0hWeLwAPbJvyDUB/DcALDzlJCOTb0wYsetJ0ECfd8899/UPh0EsABpnMkVBgU6uNza1JGPrA/xlBvAjwEFpV7Yvnju35sukglH1im6/NLQnnrVbFaNNZuuF1ldzxfrp43NPvbA9tvfkLgP4c3hj8ASCs0F8/uG3yxaaDOOXeN5qOCoVCf4XBwd9WxfutNlbWdWJji3cG/6H5WTP4A0CeiLX83pq6UaaDUPYpCeXf4/PBHwBOFbs1ZjpEV3h2BuDBD24argm8lsEVn7qiwRJ73A/6L95oOkh3lL9eX4qEvAyosYU+dnco3m5KosXwVP/HPl4IaEielU2D/yd9ANGz5owu3WI6CGWHh7ZNPtmGVAMIwsU2CRGMndb/sddNB0mFJwuAT6aDXo8nW8+IDf5Fm+kg6VhcqZE6K/6MAl8wcfwWW/FmUxJ7MnBJf8QCikKC/JAg3wLyQoJcEURDQEQEIQCW7B/8CQDwnh0Jn3XnKQUfmg5CwffAtpteBnCW6RwO+tv0AY+dZzpEKjz5EacknP8jjw/+AHBqcSj3LtMh0qGqUms1PGFi8FcAm1ttvFSXcGXwtwQojVgYkm9hXFEYXyiN4KKeEYwvDuPUghCOzw/h2BwLvaKCwpAg19pfEDj4/5vjpTOxIrb+owLTQSjYFm6bchGCNfgDwLkPbJl8vukQqfBcAfjxjpuHqep00zlSIzMf/OCm4aZTdNX8moYfAvrdTB+3NalYE0/ireYkkg6O/VFLMDDXwrjCMC7qGcHE4hBG5O9fyz/XK1eP+IwA43Lboz9XVVYjco3AvtN0BleExBffl+cKgGXbCwDkmM6RoqgmMc90iK6oqKotU+iPMn3cD9ptvFSfQF2nM0v3WSLol3PgU37PME4uCOGoHOEneQcp8NXytfHbTOegYHpw25TTADnHdA5XKM5/aOtNY03HOBJPFYCfbL3xRACXmc7RRV9euPVmo0/LStV9NfGhEOtXyODP3VbF601JrG105ur+krDg5IIQLigNY2zh/k/5nnoRB4woKubX1F9oOgcFkX2t6QRuSlqS8VnWrvLUe6ct1u3wWKYUiMCeZjrEkSxYt7tH0tY/KFCSqWO2JYF/xJPY3tb9T/2lkf2f9s8sCWNgroWI314l/hWyFf89f90+Lz2NjXwutv6qqEKuNp3DTaL6jcWVN3j6zgbPvI0u2H17D1V81XSOtAiuXrh9uslVCo8okch7JJMP96lPKFbFE6jr5sf+0oiF8cVhTCze/2mfjOhrJ60nY+s1ajoIBUNJQc/PA+htOofL+jT1C3v6AkfPFIBwR8skj97zn4oisdsz+YCiLimvqb8Kotdm6ngftiv+EU90axnf0rDgzJL9A3+vCAd+82RiTnvcV9e7kHepWL64Ta67LBue/j49UwAA+yLTCbpHPbk64D1r9x4LxWOZOt7WNhtVTYm0r/KPCnBqQQgTisMoCXPg95jp86pqzzYdgvxP4O2B0SkqamSdlVR5pwCI+PsFId57QauqhOzwrwD0ysTxtrTZWN+UhKYx+AuAY3MsfL40jP65FoRjvxdZAuunC1dv9/TpLvK2mMYsAFmx5LQoRh/4fj3JE8Hu33lDbygGms7RTZ9buP0/epoO8UkV1fHrAWRkQYr3WpL7B/80ts21gPHFYYwqDCFqceT3NMHwjpzC/zIdg/yr19a9AxXINZ0jQ/JKd+307AW0nigAoU7Ld4vpHIxKdJjpDB+7t7L5aAgqMnGsza02NrSkd6V/36iFs0sj6Mnz/L6hghkVlbWevriJvKszZAfi/T5VyUT4BNMZDsUTBUBgfc50BieEFMebzvAxK9T5KIBSt4+zvc3G283JLm8n2P+0vXGFIfDift+xVKwneCqA0iGKfqYzZJLl4e/XEwUAsDN2b7q71BPfx7zquklQfNnt4+zusPFGc9en/XNDwISSMIbl81y/bwmGd+QWzTQdg3xI1K93e6VFPfz9eqIA2CKBeOiI2mL8Bx1br1GBLHD7OPUJxdrGrl/wVxASTCyOoJRX+PueQmfeW9l8tOkc5C+qvr3dOz2KItMRDsUTBYCck9MR/wEAV69FaE0qKhu6/kCf0rBgQnEYeXzVBUWBZXXygkAin/LEW7EIGk1ncISgweThF6xr7AuFq0+hsqGobkx2eZGf3hHB6UVhRD3xiiMHfa+isvYU0yHIPwLzfp8qw+PC4YRNBwAAsSWu4vyz4TNNBHGTx08kE3cCUuzmMd5oSqK+i8v7HpNjYWRhyBttk5wWsi1rAYBLTAc5mNhKzY0WNw2B6hCIDhHoMQoUWYJcVRQAKMT+W9JyATTt30paAdQCuheCfaqyw7KTmyWiW1pP7bkzJuLMIy2zlUoj0rph2J9ExbOFxxMFQGG/v/+6cH9LCt4zdez56/YdZyflBjePsb3Nxo62rv3i9o1aGFUYCsBPlw5FgIvL19ZfNGdUyV9M5phfveeYpIbHi8hEAOMAGQrEj/k45McEOMK1K/pv/ylQqGVBk0BOTbylvLp+PYB1UFlnq67ubCx+PXaeJJz/joJJBbsD8HkvZbZgt+kMh+KJApCM2BtCiZDpGN0m2vGuqWPbydCdcHFxjWZb8VYXb/crCQvGcPDPCmKjHEBGC8C9bzQdZXUkLofgXAATbWDgv99V4sookw/gNACnQRSWADnF8aaK6vpXbcVfLLWfmT2u5xtuHDgoIklrQ8Lq+q3DfhUKJ94xneFQPPPe/MC2mzYDGGQ6Rzdsmj7gMSPrGZTX1A2CygYArjytzQawJp5AfWfqb6iFYWB8UYTn/LPLhXPGlDzv5gHKa+oGqeJKEevLUJ0Ij1zH9Ck7AP2DSmjpnFGFq0Wy6fPukcU0ZpVs/7A5S1YDbI33P6ogJjFPnjbyzC+PACtNZ+gWxYsGj30bXBr8AWBTa7JLg3+eBZxeyME/2yhwuxv7ja3/qKCiqv7G8ur6SqhsFsiPoXoWPPT+9SnHATJV1F5VURPfOq+67u7ymrpBpkN5RUxitqrUmM6RIdVeHfwBD/0C2VCj5w+7SzI8/fmxhevjPQH5nlv7b04qNjanPvhbAEYXhZHr/zM61EUCXFRRXTfSqf3Nr2ocUV5d93BOe3SHCh4HMNapfWdQf4HcBZX351XXPzuvJn6pqnpm5tUUEfX3B74UqeIF0xkOxzMFoEfYXgb17e0hDXmR5J9MHLijQycD6OHGvhXA601J2F04lzqih8VFfrKXqHR/FqC8qv78iqr6F21JrgfkFgCu3tmSIZYAF4vqnypq6t8sr667bnGlRkyHMkXV5zO+KRLL20XHMwXgxmOWtIjg96ZzpEWx9MZjlrRk+rCx9RpV1Vvc2v/Odhu1XZj67xu1MDCPH/2zmsrX7vnnvv7pbDq/Kj6+orr+eQhe0P2P1w5ok5QTAflZnRXfUF5Td21spXriYuxMyt+T/DuAvaZzuErxUf6H9iumYxyOZwoAAFhq34/915z5iVqiD5k4cE5b/MuAuLIUa1KBDV246j/PAkYW8Ip/QiQUDv2gKxvcW1V7anl1fJktukaBL7gVzGsUGAyVn+cUxd+cV9Vwmek8mXTjuCWdAJ40ncNVlv72wPfpWZ4qAFMHLn4LwDLTObpCFX/4wYDH3zRxbBFc79a+32+10ZpiFRMAY7jKH/2f76QyvR37x76i8uq6hy2xagAty0QwTxIMF7GXl1fVPze/qnGE6TiZIpBfms7gJsuWX5vOcCSee8u2xL4DQLvpHCnqsMLuLr17KOWv1Q9R4Dw39t2his2tqX/6H5hroYTn/en/9N0njRcf7gvmVTVclhMNvXHgHL/n3oeMEFxkS3JdeXV9xU82ao7pOG6bNmDRawD+bjqHG1T0hR8MfKzKdI4j8dwv3g/6L94owI9N50iNzJ927GMbjBw6hO/DpZ/f+y02Ul3tN8cSDO/B8/7070Ts7x7s7+dX7zmmorr+f0Xs5QAGZDiWH0QAzGpurK8ur4mfZjqM20Tte01ncIOK5Yvvy3MFAACs9vB/AVptOscRvK6SU27iwAduI/qmG/tuV8XWttQvwxjRwwI//NNBlMVq6ko++RcVNfEvJRF5Q4ErTYXyDzkRqqvLq+piS5dqYBv2tIGL/4qgzQIIXrztuEWevvr/Y54sAFOHPtxuiX4d8OxTlOIhJK+c0f+BVhMHL69pHA9goBv73tJqp/yY354RwTE5nnwJkXm5UchVABBbqeF51fXlqrpcgJ6mg/lIGCI/ev/4+Av3/bOpn+kwblG1bgbg6YvluqADSXHtziynefbd+wf9F2+0LbkC3rseoEMhV08dsOR9UwFE9Wtu7DepwLYUP/2LACf3CPOqfzokUfnOgnWNfXOK488IMBuBva3PdZ9PhhPr7l1b58o1P6bNGPjoelU8aDqHE0Rk4fRBi942nSNVni0AAHDbcYtWCuQaAF550lZCVb8zY8AiY6sWxlQtiH7VjX1vb7fRkeLsf7+ohcKsu3uZukbPSiSTbwK4wHSSAOhr2fJseU39900HcUO4I/xDH5z2PQKptNpCMdMpusLTBQAApg1Y9KSqXAnAyHT7J7SL6NdnDHx8qckQeesaxgE41o19b031vj8Ax+d5/qVD5gmAPqZDBEgUip+WV9fPC9pywlOHPtwegn01gLjpLGmqh+rXpg592Gsz1ofli3fxGQMXLYdlfwHQHYYibBOxPj+t/+P/a+j4/2IrvujGfms7FU0pnvzvG7VQxCv/iEyZU14T/++gLSU8dcCS9yH4Bvx3PUCnQL8+feBjm0wH6SpfFAAAmH7c4jXJsD0awPLMHlmfjljWmGn9H301s8c9FHWlAKR67h8Ajs/j4E9kkgDfrJX6P8ZWaqAeqTu9/2PPqOBa+GdFWFXF9dMGPP6c6SDp8OU7+cKtU8rE0oeh7lwJf8AHojJ32sBFv3LxGF1yf2VD707L3g3A0duCkgr8tbYzpav/e0UF44t48p/ICxT4a25b4+UzJvY3fYrUUQ9unXyjijwKh9/rHJaEYsr0gY8tMR0kXb6ZAfikGQMXLY837B0mKtcAeM/h3W9TlWkquUO9NPgDQELs8+HCL8SHHanf+jeAt/0ReYYAF7bnFv4+tl6jprM4adrAxxcrrK/A/LVfh9Iuim/4efAHfDoD8EmLK2+INPcJXyKWfgeKLwHIT2M3zYD8SdT+df2Afs/GJOaVuw7+TXl13UOATHV6v1UNCezuOHIDCAtwQc8IQr5/1RAFiwC/H/Je8devvlpSX8PbBx7YceME2Nb/wEurRgq2Cqyveee0cPoC9VYeW39VtKiw9xkCOQewTwJkGIB+AAqw/5nicQBNAHYLsEEhbyn0pYbGva/GTvpdh8nsqaiorq9SYIyT+0wq8Nd9nUjlXaN/roVTC7w8I0eUvUTx09ljS24wncNpj+y4uVeH2r8QhQeemKhP56h8b8rAx+pMJ3FCoApAkC1Yt7tHIplbD8DRE/Afddh4rSG1Dw0TisPoGeFLhsi79PY5Y0p98iyVrlm4dUqZiD4KoL+Bw+8SldleOy3cXTyh6xMdmnM6HB78AWBPClP/AJBnAaW89Y/I4+S+iqraQD5aecbARctD7eGTAb0XmVsvoB6Quzvy2ocHbfAHOAPgG+XVdbcBcr/T+/1bXQLNKVwBOCTPwgg+9Y/I+xSNqtbpc8cVvWM6ilse2DytBKGOmwG9Ae5cH7ANkCXtnYlHZn9uiV8XJzoiFgCfKK+K/xyi1zq5z3ZVPL8vtesdOf1P5CtvtNst42PjjmkxHcRNMY1ZxTt2nwNbvgXBxeje6YFtqvocLPlNw3FHvRyTmF/WIkgbb+j2DR3p9B7rUpz+DwtQwsGfyE9OiVr5CwFMNh3ETQcG6b8d+IOF26ccL2qfA8gIAMMBHA+gCJ+9ELwB+28h3wDo2yrWSzP6L3L6lnLP47u6D8RWajinON4IwNFVv95qTmJzCuv/941aOK2I0/9EviO4es7okt+ZjkHexIsAfSC/MD4QDg/+ABDvTG0GgFP/RD6lWLRgXWNf0zHIm1gAfCBpYbDT+1QADSku/1fKAkDkV707k8kHTIcgb2IB8APBIKd32ZZUJFIY/0WAYi79R+RbAnxzXnXdJNM5yHtYAPxhkNM7bEzx03++JVz6l8jnLMiDQXtyIHUfC4AvqONPPWxJ8QaXQl77R+R7CgzOLYnPMJ2DvIUFwAdUpY/T+2xJcQaggKv/EQWCKubMr95zjOkc5B0sAD4gQG+n99ma4jPD8iwWAKKAKEgicpfpEOQdLAD+4HgBaE9tAoAFgChABPj+3evqHb+riPyJBcAPFD2d3mWHnVoDyGUBIAqSSCSJO02HIG9gAfC4mKoFQaHT++3Q1ApANJTiVAER+YIC3+G1AASwAHjf3xB1epcKpLQGAABEuFo0UdBEbURuMR2CzGMB8Lq8WhcKgCKVCQALAp4BIAqkyQvW7e5hOgSZxQLgcdFoNMfpfdqa2qhuCaf/iQKqNGHnXGU6BJnFAuBxIbRFnN6njdQGdovT/0TBpbjedAQyiwXA4xKRvBTv2E+dleIMANcAIgoymTivuvFE0ynIHBYAj8uzkp1O7zNs7V/j/0iKwk4fmYi8RJD4uukMZA4LgMc1oL3Djf0Oyjvyj35QHh8EQBRs8jXTCcgcFgCPO7q1T7sb+x2UZ+Go6KFnAYbmh9ArwnMARAE3rKK6bqTpEGQGC4DH3ThOOgE4PgsgAMYWhXFijxB6fOJ0QHFYMLYwhGH5fGkQZQWRL5mOQGbwLK8/1ALo5/ROBcDgPAuD8ywkFRBRXvlPlGUU8kUA80znoMzjxzxfkH1uHyEkvO2PKCupjo/V1JWYjkGZxwLgD7WmAxBRYIVzYZ1pOgRlHguADwh0j+kMRBRcqsoCkIVYAHxAVbabzkBEQSZnmU5AmccC4Av2VtMJiCjIdExMleNBluEP3AcUYAEgIjf1yF/b8DnTISizWAB8QFW2mM5ARMGWsO1TTGegzGIB8IFopG0DANt0DiIKLkssPhgoy7AA+MDMkf2aIdhiOgcRBZkOMp2AMosFwC9U1puOQETBpcBg0xkos1gAfEPfNJ2AiAJMMMh0BMosFgD/qDIdgIgCzEYf0xEos1gAfMJC5xrTGYgowASFP9moOaZjUOawAPjErDF9dgLgioBE5JrWxr29TGegzPHN44CvGK+DbMEUFVyCjy9WEWxSxbM2sOjPqyUbFsv5B4D+pkMQUTAlrZwC0xn8ICjjkS9mACZN1DuSFt5RwUwApwAoAFAAxakC3BECNpRN0NsNx3SfykumIxBRcKkkoqYzeF2QxiPPF4CyM3WBAvMBHO7cVA4ECyZN0PsylcsEKyx/NZ2BiILLSli8BuAwgjYeeboAlE3Uy6FIuUmpYOakM3WSm5lMmjWyaAOAbaZzEFEwWSEJmc7gVUEcjzxcAFQAVHR5K+36Nj7zvOkARBRMmki2ms7gTcEcjzxbAMrGYzSAE9LYdMSlE3WU03m8QlX/ZDoDEQWTBavFdAYvCup45NkCoBbGprttSDDOySxe0qGtzwJoNp2DiIKnExEWgIMI6njk2QIgQM+0N7bR28EonhIbd0wLBH8xnYOIgieEdhaAgwjqeOTZAgDBvrS3tbDHwSSeoyp/NJ2BiALHbmss5eziwQR0PPJsARA7/bXvVVDpZBav6ehIPA2ATZ2IHCS7Y+dJwnQKLwrqeOTZArBsjdQAeLvLGyreWrFK1jmfyDti43s1KPCU6RxEFCCiXGr8EII6Hnm2AACACGansdksx4N4kFj4pekMRBQgyjVGDieI45GnnwWw7BVZdtlEvU+AO1LaQFCxfLWscDmWcbH1GrXa975pI7IPAB/eQUTdJpDPzADEVmo4p1e80O6I5FramWdbdoEFKwIAtqVJKyENVqizLa+w976pQ6U986kzJ4jjkZgOkIqyCXo7BHcDyD3El7QpcOeK1bIwk7ncHsfIVgAAIABJREFUsnSphrYMbRiSsO1TBDICkOMhOkCBgQL0A9DDdEYiCpxnIPIOVAco0F+g/QE5ugvbN0HwERTboLIFgk0KfTsssq5lVNH7MRHbteQZFKTxyBcFAADKztIBsDEFwCUAhhz4600QPGOFsOjplz7bXv0i9o99RbkR+bwt1kQBJgAYBw7yRBQczYBUA7paoatzc6xVM04qrjUdKl1BGY98UwCC5t6q2lMtCV0O2BcDcgY8fjqGiMhBSUBfFVjPqGX/ac6o0hrTgbIRC0AGza9qHGFL8jsAvgpgqOk8REQesRGCpSLJ384e1Wu96TDZggXAZbHKnfnRUP63RHEdgPGm8xARedwaVf1pJNy+dObIflyYyEUsAC6Zv27fcXYydIsC13drGUkiouxUp8DiEDofnjWmz07TYYKIBcBh977RdJTV2TkXkBsB5JjOQ0Tkcx0C/FpF75kzunSL6TBBwgLgkIXr4z3b2/V2AFPBK/iJiJzWocDPQui8hzMCzmAB6KaFq7fndeQW3QbobQqUmM5DRBRwzVCU57Q3LpwxsX+r6TB+xgLQDeU1dedC5acAjjedhYgoy2xRtW6dO7bI06vteRkLQBpi/9hXlBO17gbkFnj8eQpERIEmusLSxI08LdB1LABdVFFVW6ZiLQJwnOksREQEANirotfPHV3Kp6R2AQtAin6yUXOaGuMPCXCj6SxERPRZovhpKNw2nesHpIYFIAX3rN17bMgO/x5cyIeIyOvesTR05ayxhW+bDuJ1PH99BPOq6z4fssPV4OBPROQHJ9iSXFNRVVtmOojXsQAcRnlV3XSBPA+gr+ksRESUsmIV66ny6rrbTAfxMp4COAhVlYrqhgcg+gPTWYiIqBsUiz73fvHUq6+WpOkoXsMC8CkxVSunJr4YwPdNZyEiIifI8h6FRVdNHSrtppN4CQvAJyxdqqH3j2/4GaDXmM5CRESOeianrfErXD3w/7AAHPCTjZrT0hD/HxVcYToLERG5QPGXHkXFkzgTsB8vAsT+T/7NjQ1LOfgTEQWY4KLmxoaliys1YjqKF7AAAHhvaP1DgE4ynYOIiNymk/ZZ8V+oatbPgGd9ASivqZ8pKjebzkFERJkhwDfLq+P3mM5hWlY3oIqq+qtV8FuwCBERZR/B9XNGlzxhOoYpWVsAKiprz1LL+iuAXNNZiIjIiA6Fde7cMUVrTAcxISsLwP2VDb07LV0H6DGmsxARkVG7LXSOzcbHCWfd1LeqSqelP+PgT0REAPqpRv47ppp142HWfcPzqxum8Ip/IiL6mArOy62J32E6R6Zl1SmAirX7TlI79BqAPNNZiIjIUzotYOKsMSWVpoNkStbMAMRWaq7aod+Cgz8REX1WxIb8IrZeo6aDZErWFICc4oaZAE4xnYOIiLxKT8ptb5htOkWmZMUpgHv+ua9/KBx6B0C+6SxERORp7VbIGjlrZNEG00HclhUzAFYkdD84+BMR0ZHl2En7EdMhMiHwMwAHFvx5CVnwvRIRkTNE5LLZo4v/ZDqHmwI9AxBbqWG1rEXg4E9ERF2gqvcvXaoh0zncFOgCEC2Jfw+88I+IiLruhPeG1n/bdAg3BfaT8eJKjdRZ8Q0KDDadhYiIfGlLe07x8NhJ0mE6iBsCOwOwz4p/l4M/ERF1w6BoW/23TIdwSyALgKqKALebzkFERP4mIneoaiBnywNZAMrXNnwRwAmmcxARke+dML+m4RLTIdwQyAIA1ammIxARUTAogjmmBG5ao7ymbhBU3kdQyw0REWWanYQOuWtM6VbTQZwUvEFScR2C+H0REZEpVkjxPdMhnBaogTKmagFyjekcREQUMCLXBO1iwEAVgGh13ZkABpjOQUREgTOovKrhdNMhnBSoAiAIfcV0BiIiCiYJ4WumMzgpMAVAVQWiXzadg4iIAkr1StMRnBSYAjCvuu4UcPqfiIjcM3B+VeMI0yGcEpgCIJZ1kekMREQUbElJfNF0BqcEpgBAwQJAREQuk8CMNYEoALGVGhZggukcREQUbAJMWLpUQ6ZzOCEQBSBSGD8VQIHpHEREFHhFG4fWn2I6hBMCUQCskIw3nYGIiLJDSCUQM86BKACiOsZ0BiIiyg4qGGU6gxMCUQBsIBDTMURE5AOKU01HcILvC0BM1RLgRNM5iIgoa5y8/9kz/ub7byD8Wu2x4AWARESUOQV5NXv7mQ7RXWHTAbrLCskg0xmIvK7DVrzXYmN3h402G1DTgeiwBECuBfTLsXB8voWoBOohdIGgkjMIwE7TObrD9zMAkNAg0xGIvKw5qXg5nsDmNhutHPx9QQG02sDmVhsv1yXQbPOn5jUKHWw6Q3f5vgBY0GNNZyDyKlWgujGJtqTpJJSuNhtY25BkcfMa1eNMR+gu3xcAQPqYTkDkVbUJRUOCQ4ff1ScUdZ38OXqKopfpCN3l+wKg8P8PgcgtcQ7+gcGfpceI/8ce3xcAAKWmAxARUXYRRU/TGbrL/wVANdd0BCKvKgnz6vGgKObP0lNU4Puxx/8FQBA1HYHIq0rDwhIQACURQWmEP0eP8f3Y4/8CAI2YTkDkVSLAqKIQcgPwm56t8ixgdGEIHP69RnNMJ+gu3y8EBLEUyotjiA6lhyU4uzR8YCEgRVtSeUuZxwmA3JDg6Kjgc/khRDn6e49Yvv818n8BUO0wHYHI66IiOLFHCCf2MJ2EKBhEtd10hu4KwsSg738IRETkLxqAscf3BUCAVtMZiIgo6/h+7PF9AYBin+kIRESUXRTYazpDd/m+AKj4/4dARET+IgEYe3xfAADlDAAREWWUqtaaztBdvi8AorLddAYiIsouAtlqOkN3+b4AqCWbTWcgIqIso9hiOkJ3+b4ARJIsAERElFmasLaYztBdvi8At48r2osAXI1JRES+sWfuGUW+v/7M9wUAAETxhukMRESUNdaZDuCEQBQAhbxuOgMREWUHCciYE4gCIGJXm85ARETZwQbWms7ghEAUAFVrtekMRESUHZIhXWU6gxMC85DJ8ur6XQD6mc5BRERBJjvnjCk+1nQKJ/j/ccD/5xUAXzEdIug6bD3wXHkbbTb4XHnyJQGQawH9ciwcn28hKoH5LESu05dNJ3BKIE4BAIAKnjOdIeiak4qX4wlsbrPRysGffEwBtNrA5lYbL9cl0Gzz1UypUdXAjDWBKQAhK/kMOCa5RhWobkyiLWk6CZGz2mxgbUOSbx6UCg1JggXAa2aN7LUD4HoAbqlNKBoSfIukYKpPKOo6+fqmI1CsnTWmz07TMZwSmAKwn/zedIKginPwp4Dja5yOyMLvTEdwUqAKgFrypOkMREQUULawAHjV3FFF70JRYzpHEJWEeZU0BVsxX+N0GApUzhlb/J7pHE4KVAHYT/5/0wmCqDQsLAEUWCURQWmEr286NAsI3NgSuAIgmvw1gBbTOYJGBBhVFEJu4F4xlO3yLGB0YSg4q6KRG1rbRH9rOoTTAvd2PntczzgQrPM0XtHDEpxdGsbgPAt5IeEbJvmWAMgLCYbkWTirNIJ8i69mOgyVJ2OjS+tNx3BakFYC/Bdbkwstsb6LAC117BVREZzYI4QTe5hOQkSUGbZlP2Q6gxsCNwMAAHeO7fk6gBdM5yAiIn9T4Lk7R5cG4ul/nxbIAgAAonK/6QxERORvAgR2LAn0FHl5dfwlQM82nYOIiPxIX5kzpvQs0yncEtgZAACwof9pOgMREfmU4C7TEdwU6AJw55iSF4TXAhARUVcp/jJndOnfTMdwU6ALAADYCE0FkDCdg4iIfCMhat9uOoTbAl8A5o4pfAvAE6ZzEBGRPyj0sdnjegb+6bKBLwAAELGtHwLYYzoHERF53ocSlh+ZDpEJWVEAbh9XtBci003nICIibxPF1DmnltSZzpEJgb4N8NPKq+v/BOBS0zmIiMiLZPmcMcWTTKfIlKyYAfiYhc7rAew1nYOIiDxnj22HbzQdIpOyqgDMGtNnp4pebzoHERF5i0K/f+e4HrtM58ikrCoAADB3dOlTAB43nYOIiLxBoQ/PHVO6zHSOTMu6AgAAPe3iqYC+YjoHEREZ94+OnJLA3/N/MFlZAG4cJ53JhP0NAB+ZzkJERMZ8mLQSX42dJB2mg5iQlQUAAO46vdd2y5IyAC2msxARUca1iVhX3jWq9wemg5iStQUAAGaNKv4nBNcCsE1nISKijFFArps9umi16SAmZXUBAIA5o0t+p9CZpnMQEVFmiOj0OWOKf2s6h2lZXwAAYO6Y0oVQPjqYiCjoBPLD2aNLHzKdwwuyaiXAI6moqZ+vijtM5yAiIlfMnzOmZLbpEF7BGYBPmD26ZBYAvjiIiIKHg/+ncAbgIOZV1d8hggrwfx8iIr9Thd4+d0zpQtNBvIYD3CFUVNVfrYJfAsg1nYWIiNLSLirfnz22+L9NB/EiFoDDKK+pOxcqfwBQajoLERGlToFaC/rl2WNKXzKdxat4DcBhzBld+jex7VEKVJrOQkREqRFgrSRxGgf/w2MBOILZ43pu67BbPg/V35jOQkRERyK/jLY1TpxzWskm00m8jqcAuqC8pv4qUSxRoMR0FiIi+jcNUMycM7ZkiekgfsEC0EX3VdZ/Lmnh1wAmmM5CREQAoK8kQvKdH44s2Ww6iZ+wAKRBVaWiOn49gPshKDSdh4goSzUDuPtz7xXff/XVkjQdxm9YALqhorJ2ACzrAQWuNJ2FiCjL/M4KJWfMGtlrh+kgfsUC4IADtws+CGCk6SxEREEmwFobOm3umNK/m87idywADompWjlr41+B4h4Aw0znISIKmC1QlH/u/eKfcbrfGSwADltcqZF9Vvy7opgJwXDTeYiIfO5tiN7XXl/y37HzJGE6TJCwALgkpmpFa+ovE8gMAJ83nYeIyGf+JmovnDWmdIWIqOkwQcQCkAHz1jYME9u+DsD3APQ1nYeIyKPqIPidJO1HZo/r+YbpMEHHApBBS5dqaNOQuglqyVWAfANAH9OZiIhMEqBeoctF9XdtuaXPxU6SDtOZsgULgCGx9RrNaYufBeASCC4BcDL48yCi4FMAb4jg2aTos70TJatuHCedpkNlIw44HjHv1YZeVjgxEZZ1FhRjdf8thb1N5yIi6qa9AqxToFLUfsVOhFfPPaNon+lQxALgafdWNh9tWZ0nQTBIbQwWSwfAlr4i6K37y8HHqxCWgD9LIsocBVB/4L8bBNhnA3tEdA8gWwFssRWbYUfeunNcj10GcxIRERERERERERERERERERERERERERERERERERERERERERERERERERERERERERERERERERERERERERERERERERERERERERERERERERERERERERERERERERERERERERERERERERERERERERERERERERERERERERERkavEdADfu+rWPujsmAvIlQCOBrATgj8gYc/D8iV7TcfztFjMwr7o2bBxAUROBzAcip4QFJqORpQhDVDUQvAugFeh8jz6tK1CLGabDuZpfN91BAtAd0yacjwseyWA4w7yr9sB+zw8teT9TMfyvGmxEiRzb4HqjTj4/3ZE2Ww7gMXokEewZHbcdBjP4fuuY1gA0hWLWVi7+zUAYw7zVa/hqcfPAKAZSuVtsZiFvTmTAdwDoNR0HCJv01pA7kTv9iWcETiA77uOskwH8K21u8/B4V+EAHAaJt14dibieN7kBX2xN+c5AI+Cgz9RCqQngMewN+cZ3Dqvj+k0nsD3XUexAKRLdVxKXxdCal8XZLfcPRjhxCoAF5iOQuRDF0GtVzH1vqGmgxjH911HsQCkS6Qgpa9TKXI5ibfdOv84ILwSAN+8iNKmg2EnV+LmewaaTmIU33cdxQJA7rkhlg+1/wwgu9+0iJxxLCT0NKYvzDMdhIKBBYDcE4kuBHCK6RhEATISne33mw5BwcACQO64ed4EiNxgOgZRAE3GrfNPNx2C/I8FgNwhMg+8zZTIDRbUvtd0CPI/FgBy3i3zxwE413QMogC7ADffe6Tb4YgOiwWAnCfJa01HIAo+6xrTCcjfWADIeSplpiMQBZ7gCtMRyN9YAMhZN5UPATDAdAyiLDAA08oHmQ5B/sUCQM4K6cmmIxBljaScZDoC+RcLADnM4qI/RJliY5DpCORfLADkLEGh6QhE2UO55C2ljQWAnKUaNR2BKGsIckxHIP9iASAiIspCLABERERZKGw6AKXuivE6yBZMUcElAAYDAASbVPGsDSz682rZajYhERH5BWcAfGLSRL0jaeEdFczE/ifsFQAogOJUAe4IARvKJujthmMSEZFPsAD4QNmZukCB+cBhL/jJgWDBpAl6X6ZyERGRf7EAeFzZRL0cipQ/2atg5qQzdZKbmYiIyP9YADxNBUBFl7fSrm9DRETZhRcBeljZeIwGcEIam464dKKO+vNqWet0Jj/oVZLAKUNbccLgNpQWJVBSmAAA1DeGUdcQxtubcvHme3nYV5/+y3+I3YErOhpwcWcTBtgdOM7uBADssCLYZkXxbKQAT0eLsMnisghE5E0sAB6mFsZKmtuGBOMAZFUB6NMzgUvPrsfIYa0Q0c/8e9+enejbsxPDB7XiivPr8O7WXDz1Qil27Y2kfIxhyXbc3fohvtrRAMFnjzE82Y7hyXZc2NmIH7fswvORAszIPwZvhrheCxF5C08BeJgAPdPe2EZvB6N43rmnNWD2dTsxanjLQQf/gxk2sA23Xbsbnx/XmNLX39a2F282bMRVHfGDDv4Hc0FnE6riGzG9bW9KX09ElCksAF4m2Jf2thb2OJjEs0SAr3+xFpefVw8rjVdzyFJccX4dvv7FWsghplssAE8078CCll0Ia2oD/ydFoPhxyy480byDv3BE5Bl8P/IwsVGV7rYqqHQyi1dddk4dzjilqdv7OeOUJnzpnPhB/21eyy5c117X7WNc116He1o/7PZ+iIicwALgYcvWSA2At7u8oeKtFatknfOJvGXksFacf0Zq0/ep+MIZcYwc3vJvf/fVjgbc4eD0/ezWj/CVjoMXDSKiTGIB8DgRzE5js1mOB/GYkKUoO7f7n8o/7fLz6hAO7Z/mj6qiomWX48e4v2UXctR2fL9ERF3BuwA8btkrsuyyiXqfAHektIGgYvlqWeFyLOPOHNWEXiUJx/dbWpTEhFFNeLmqEJPbazHE7nD8GAPtTjzeJxfVJ45xfN9kzp7GZrywcRP2NDWbjkKUEhYAH1ixWmaVTdA9ENwNIPcQX9amwJ0rXpGFmcxmytiT3HuTHTuiGS9XFeJbDpz3P5RvdsZx6YXnurZ/MqO9M4EFf1uFR17+B9K4XpQoo3gKwCeWr5H7YWE49j8TYB2AxgN/1kFQYYUxbMXq7Bj8iwuT6N+v07X9Dzi6EyPy2zEu2ebaMSJb3odVX+va/smMnEgYd114Lm4+a7zpKERHxBkAH1m+SrYBmH3gT9bqf1RHyvf6p0NE8YW8xpTv9U+LKiI7tqK9JP2lHsi7Zp5/Fp6seYOnA8jTOANAvlPUw/lz/5/WX5w/9/9pVr17pxjIrNxwGOcPHWI6BtFhsQCQ7+TnuX9ytbe4f5W+tHR//QLyrn6FBaYjEB0WCwD5TnOr+y/bPQi5fgztUej6McicXQ3OrVFB5AYWAPKdhib3B+dtduoPCEpXsqTU9WOQGW2JBF58b5PpGESHxYsAyXd2fBiFqrh2IaAq8EJzIRS73bsQUASJ/oPc2TcZd98LL2NvU8uRv5AC44rxOsgWTFHBJQAGAwAEm1TxrA0s+vNq2Wo24WdxBoB8J94UwvbdUdf2v3VnDja05eC1cJ5rx+gcdDzsohLX9k9mtCUS+M/nVuLRVa+ajkIZNGmi3pG08I4KZgI4BUABgAIoThXgjhCwoWyC3m445mdwBoB8qfKtfAw4ut2VfVe/nQ8A+E20GKcn3PkU95toMd5euQo5If4KBkF7MoGttfV48b1N/OSfZcrO1AWqONLgngPBgkkTtO+yNZLaqq4ZwHcf8qXVNQU4Z2wTepc4uyBQbUMYa9btv3p7cU4vTG2vxeeSzhaNLaEobvqoFe0vrnJ0v0SUWWUT9XIcefD/FxXMnHSmrlr2iixzM1eqeAqAfClpC5b/rQSq4tg+VQVPvViCRHL/PjtEMCuvHxQOHgOC2/KPRrvwV4/I31QAVHR5K+36Nm7huxD51uvv5uHFfxY5tr8XXi3CG+/m/9vf/SFahPl5fRw7RnleH/wx4lxmIjKjbDxGAzghjU1HXDpRRzmdJx0sAORrf3qpGP94vUe39/OPdQX488vFB/23u/KOws9yun/L3hM5PfH/5R3V7f0QkXlqYWy624YE45zMki4WAPI1VeDJZ3vhqRdLkbS7PlWftAV/fKEUTz7X85BPb7MBXN/jONyWfzQ60zgd0AnB9PyjcUOPY+H++oJElAkCpP8gDxu9HYySNl4ESIHw98pCvP5uPi49ux5jT2xJaY2A9e/n4ekXS7CnLrVFfx7I7Y0/RIvxXy278e2OeEprBKyIFOK2/KOxMZST0jGIyCcE+9JeJsTCHkezpIkFgAKjriGE3/ypF555uRinDGvFCYPb0LM4geKC/Q8PijeFURsP4+1NuXhzYx5qG7r+8t9qRXBNQX/8KHkUrkg04uKORgy0O3Ccvf9uhB1WBFutKJ6NFODpSBG2hNxbr4CIzBEbVeleg6yCSmfTpIcFgAKntiGMv1cW4u+V7q21vyUUxYOhXngwp5drxyAi71q2RmrKJurbAEZ0aUPFWytWyTp3UnUNrwEgIiJKgwhmp7HZLMeDpIkFgIiIKA3LXpFlCtyX8gaCiuVrZIWLkbqEBYCIiChNK1bLLChmAmg7zJe1KXDb8ldkTqZypYIFgIiIqBuWr5H7YWE4gPkA1gFoPPBnHQQVVhjDVqyWhUZDHgQvAiQiIuqm5atkG4DZB/74AmcAiIiIshALABERURZiASBniXSYjkCUNRTOPquasgoLADlMG0wnIMoewt83ShsLADlMtppOQJQ97M2mE5B/sQCQs7TzTdMRiLKHvd50AvIvFgBy1iM/3AyAswBE7tuKR+/i7xqljQWA3LDcdACiLPCU6QDkbywA5DwLvzAdgSjwBL80HYH8jQWAnPeTOVVQWWk6BlGA/QUPz6kxHYL8jQWAXGLPAWCbTkEUQDZg3Wk6BPkfCwC549G5r0J0sekYRAG0CI/MqjQdgvyPBYDcE869DYLXTccgCg5Zi6b2maZTUDCwAJB7HpjRis7kpeBtgURO2IEQLscvYod77jxRylgAyF2P3/UBkDgPwLumoxD52CZYofPx0OxtpoNQcLAAkPse+eFmiJ4F6HOmoxD50DPoiJyBn9yx0XQQChYWAMqMh+fuQe+OSyEyGdBa03GIfGAfRG/AI7O/hCW37zUdhoKHBYAyJxaz8fDsxZCOwVDMBcDpTKLP2grIHEj7EDw896eAqOlAFExh0wEoCz0cawBQjlhsPj7KnYiQfSEUZwDWMEB7ASgyHZEoQ+KA1EJ0AxSvAvpX9O5Yg1iMa2iQ61gAyJz9b3KrDvwx54rJMQA/MpqBvOA/8dTjMdMhiDKFpwCIiIiyEAsAERFRFmIBICIiykIsAERERFmIFwESERGuGK+DbMEUFVwCYDAAQLBJFc/awKI/rxYu6R0wnAEgIspykybqHUkL76hgJoBTABQAKIDiVAHuCAEbyibo7YZjksNYAIiIsljZmbpAgfkAcg7zZTkQLJg0Qe/LVC5yHwsAEVGWKpuol0OR8id7FcycdKZOcjMTZQ4LABFRVlIBUNHlrbTr25A3sQAQEWWhsvEYDeCENDYdcelEHeV0Hso8FgAioiykFsamu21IMM7JLGQGCwARURYSoGfaG9vo7WAUMoQFgIgoGwn2pb2thT0OJiFDWACIiLKQ2KhKd1sVVDqZhcxgASAiykLL1kgNgLe7vKHirRWrZJ3ziSjTWACIiLKUCGansdksx4OQESwARERZatkrskyB1Ff3E1QsXyMrXIxEGcQCQESUxVaslllQzATQdpgva1PgtuWvyJxM5SL3sQAQEWW55WvkflgYjv3PBFgHoPHAn3UQVFhhDFuxWhYaDUmO4+OAiYgIy1fJNgCzD/yhLMAZACIioizEAkBERJSFWACIiIiyEAsAERFRFuJFgGROLGZhX/Rs2LgAIqcDGA5FTwgKTUejrPQj3FL+owwfswGKWgjeBfAqVJ5Hn7ZViMXsDOegLMQCQJk3LVaCZO4t2Ks3AjgO8ol/k0NtRBRIRRAUARgE4CKI/hB7c7bjlvLF6JBHsGR23HA+CjAWAMqcWMzC3pzJSOAeQEtNxyHyqP4A7kHUnoFbyu9E7/YlnBEgN/AaAMqMyQv6Ym/OcwAeBcDBn+iIpCeAx7A35xncOq+P6TQUPCwA5L5b7h6McGIVgAtMRyHyoYug1quYet9Q00EoWFgAyF23zj8OCK8EwDcvorTpYNjJlbj5noGmk1BwsACQe26I5UPtPwPgmxZR9x0LCT2N6QvzTAehYGABIPdEogsBnGI6BlGAjERn+/2mQ1AwsACQO26eNwEiN5iOQRRAk3Hr/NNNhyD/YwEgd4jMA+/qJ3KDBbXvNR2C/I8FgJx3y/xxAM41HYMowC7AzfeOMR2C/I0FgJwnyWtNRyAKPusa0wnI31gAyHkqZaYjEAWe4ArTEcjfWADIWTeVDwEwwHQMoiwwANPKB5kOQf7FAkDOCunJpiMQZY2knGQ6AvkXCwA5zOKiP0SZYmOQ6QjkXywA5CxBoekIRNlDi0wnIP9iASBnqUZNRyDKGoIc0xHIv1gAiIiIshALABERURZiASAiIspCLABERERZiAWAiIgoC7EAEBERZSEWACIioiwUNh2AyGm9ShI4ZWgrThjchtKiBEoKEwCA+sYw6hrCeHtTLt58Lw/76tN/+Q+xO3BFRwMu7mzCALsDx9mdAIAdVgTbrCiejRTg6Wgi9Vr+AAAJnUlEQVQRNllcFoGIvIkFgAKjT88ELj27HiOHtUJEP/PvfXt2om/PTgwf1Iorzq/Du1tz8dQLpdi1N5LyMYYl23F364f4akcDBJ89xvBkO4Yn23FhZyN+3LILz0cKMCP/GLwZ4notROQtPAVAgXDuaQ2Yfd1OjBrectDB/2CGDWzDbdfuxufHNab09be17cWbDRtxVUf8oIP/wVzQ2YSq+EZMb9ub0tcTEWUKCwD5mgjw9S/W4vLz6mGl8WoOWYorzq/D179YC5GDf40F4InmHVjQsgthTW3g/6QIFD9u2YUnmnfwF46IPIPvR+Rrl51ThzNOaer2fs44pQlfOid+0H+b17IL17XXdfsY17XX4Z7WD7u9HyIiJxziMw8d0RWTYwB+ZDqG5xQWK4pLMvK6GjmsFddescfRff7i6d5YtyH/X///VzsasLRpq6PHuKpgAP43WuzoPilLxesVjXG+j3/Wf+Kpx2OmQ3gdZwDIWXKoiXRnhSxF2bnd/1T+aZefV4dwaP80f1QVFS27HD/G/S27kKO24/ulLJSh3zcKJt4FQL505qgm9CpJOL7f0qIkJoxqwstVhZjcXoshdofjxxhod+LxPrmoPnGM4/smc/Y0NuOFjZuwp6nZdBSi/9fevcdWfdZxHP885/R2ejulLWvrVoaXofMSk7E4YWgqC1lcIPrPkql/8IfBuLAZlcxZRXe2uBE0yja6G2HJzMIf07hxERkaCqwgMFvncIzAuLSMzTm3SkuBtuec3+MfNYssQ05Pf0+f3znn/UoISdPf8/uEnHP4nt9z+eaEAgAFae6n3H3Izr32nHr66vSNEOb9L+Xr6SHdsqjD2fjwYyyd0S927VFXz37lsV4UmFZMAaDgJOuyam9NOxt/Vlta11aP6frsqLN7lPcfV+zMoLPx4UdleZlWLurQ8gWf9x0FuCwKgPzltnkcoWtvGc95r38+jLG6KXE2573+ebFW5afDXVyI6Lhr4QLNrK3xHaN0WX3wlh5chAIgX8b0+o5Qquprwp/7f792E/7c//vFzribYoBfVWVlWnjNR3zHKGF8PueCAiBfn23pkcSLzIPqhPvJ1WbjfpW+OT/18wsQXa11tb4jlKoXtemxPb5DFAIKgHylUoEU3Cbpdd9RSs25C+5ftv9S3Pk9bE2d83vAn38MM0vowSnFzdckl/N3xYMCYCo2rjuubHCdZH4lqV9S1nMi/6z7tc/DI+7/cz4V5N4gKF/ZhhnO7wE/RjMZdR874f5G0/B+KwBZyZyU9EuZ+HX63WPT8A9fHNgGOFVb1r0jacV//+COVSk5PiHx9D8rZK1xthDQWmnHuTpZveVuIaAxyrTPdjM2vPv5jh69M3Le/Y2SDffp6dUp9zdCMeIJAArO0Ehcr79V4Wz8gTcrdWS0Un8pSzi7R3r2xxTUNzgbH36MZjK6d/tOPbLngO8owGVF/gnAzfNsY4XRbbK6SUZtshqT0WFjtXnzPm2XHO4HQ2T1vlqtWW1jTsb+6+GJXgAbKpL6XMbNt7gNFUkd3rlHlfHIvwWRg7FsRgODZ9R97MT0fPMHQhDpT5/F8+xyY3S/pOR7bYsm/u6wRrcvma/eWNwu3dRjXvUWEl78+aVafXHuiJobwj0QaHC4TPtenli9/URlk74zNqiPZsMtNPrjFbr97Qsa62ahMgB/IjsFsORGu8YYdUn6f23Trg+y2rd4vp03XbkQDdnAaMuuBlkbXi8Ua402djcok50Yc9wY3Z1olQ2xaaaV0YrqNo2ZyL71AJSISH4KLbnRflNW383x1+uN0bNf/oKd6TQUIufg0YS6X6wPbbwdB+r196PVF/3s2Yp6rU6E99JalZip58rDywwA+YpcAXBrh62V1QOTusiqtSyjTkeREGFbX0hq/8GpH7m6/+Va/aHngx82rUy06MnKqW/ZW1/ZqJ8mWqY8DgCEIXIFwNi4Fku6YtIXGi3t6LCRXtOA8FkrPfN8kzZ2z1A2mPyj+mxg9NyOGXpme+Mlu7cFkpbVXKUV1W1K5zEdkJbR96rb9K2aK+X+fEEAyE3kCgAZLcjzysb6C/pkqFlQMHb31un+dR9S76GanNcFHDqe0OonW/VCX24n8q2patacho/r6YqGnNcF/L68Tp9OXqOHqppz+n0AmC6R+8ZsrVrzvTYbU5ukgyHGQQH593BcG7Y2aVtPUp+Zc0Gf+PCoGpMZJWsnmgcNjZRpcKhMh09U6ZXXEhocnvzLfyBWrqW17bon26KvZs7q5vGzujoY11XBxG6E07FyDcQq9Hx5rTaV16s/7u68AgCYisgVAJpCm91YjBaQmNjKt7u3Trt73Z213x+v0IPxJj1Y2eTsHgDgUvSmAKwO5XllJjA6EmoWAACKVOQKACNtVH5NdXZu3WNosA4AQA4iVwBs3meOGaMNk7zMmkD3OgkEAEARilwBIEnpjO6UVe7H+xr9bPN+s9dhJAAAikokC4BtB8ywiWmRrC7XUiuQ0T1b9rptPwsAQLGJZAEgSZv3mjfPVmqBjJYZqU+6qDH7iKx+k5Xmbtlr7qMjIAAAkxPFbYDv2bXLZCStl7T+1rk2OV6tK01a569I6411fSbcNnAAAJSQSBcA/+u3fWZIYp9/5BkzfskzdQGEyyrcXtUoKZGdAkChssO+EwClw/B+Q94oABAyM+A7AVA6gpO+E6BwUQAgXDb9iu8IQOkI8j05FcijtylwOXes6pd0tecUQLEbUFfnbN8hULh4AgAXtvgOAJSAjb4DoLBRACB8MT3lOwJQ9Ix+7TsCChsFAML3cGefrNnpOwZQxP6otZ0v+Q6BwkYBAEeCTkmB7xRAEQqk2I99h0DhowCAG4/86ICMfcJ3DKAIPaquu3t9h0DhowCAO2VVK2R00HcMoHiYv2lk7C7fKVAcKADgzprvX1A6e4skDgcCpu604vqKnkqN+g6C4kABALceX/mGlPmSpKO+owAF7IRi8YV66IenfAdB8aAAgHtdPzkpYxdIdrvvKEAB2qbx8hv08A9e8x0ExYWTADF9UqmY3q1aJhs8IJlG33GAiHtXxnZqbed6ydBiE6GjAMD0uzNVr6ByuYy+LWmW7zhAxAxI5nGZ0Ue1NkW3PzhDAQB/UqmY3q6ar3iwSFY3SLE5km2SVO87GjBNhiQzKGOPyOqAZP+k5vF9SqU4QwMAAAAAAAAAAAAAAAAAAAAAAAAAAAAAAAAAAAAAAAAAAAAAAAAAAAAAAAAAAAAAAAAAAAAAAAAAAAAAAAAAAAAAAAAAAAAAAAAAAAAAABS5/wAUunOs5s1tlAAAAABJRU5ErkJggg==;" vertex="1" parent="1">
          <mxGeometry x="250" y="260" width="40" height="40" as="geometry" />
        </mxCell>
        <mxCell id="3eWW4N3rXiygS2KMkPMq-12" value="&lt;font style=&quot;font-size: 14px;&quot;&gt;Server&lt;/font&gt;" style="text;html=1;strokeColor=none;fillColor=none;align=left;verticalAlign=middle;whiteSpace=wrap;rounded=0;" vertex="1" parent="1">
          <mxGeometry x="300" y="280" width="130" height="30" as="geometry" />
        </mxCell>
        <mxCell id="3eWW4N3rXiygS2KMkPMq-20" style="edgeStyle=orthogonalEdgeStyle;rounded=0;orthogonalLoop=1;jettySize=auto;html=1;exitX=0.5;exitY=1;exitDx=0;exitDy=0;entryX=0.5;entryY=0;entryDx=0;entryDy=0;" edge="1" parent="1" source="3eWW4N3rXiygS2KMkPMq-15" target="3eWW4N3rXiygS2KMkPMq-16">
          <mxGeometry relative="1" as="geometry" />
        </mxCell>
        <mxCell id="3eWW4N3rXiygS2KMkPMq-15" value="Redis run Lua script&lt;br&gt;Check available ticket" style="rounded=0;whiteSpace=wrap;html=1;" vertex="1" parent="1">
          <mxGeometry x="270" y="335" width="140" height="45" as="geometry" />
        </mxCell>
        <mxCell id="3eWW4N3rXiygS2KMkPMq-21" style="edgeStyle=orthogonalEdgeStyle;rounded=0;orthogonalLoop=1;jettySize=auto;html=1;exitX=0.5;exitY=1;exitDx=0;exitDy=0;entryX=0.5;entryY=0;entryDx=0;entryDy=0;" edge="1" parent="1" source="3eWW4N3rXiygS2KMkPMq-16" target="3eWW4N3rXiygS2KMkPMq-17">
          <mxGeometry relative="1" as="geometry" />
        </mxCell>
        <mxCell id="3eWW4N3rXiygS2KMkPMq-16" value="Update ticket data&#39;s&lt;br&gt;&quot;Owner_ID&quot; in MySQL" style="rounded=0;whiteSpace=wrap;html=1;" vertex="1" parent="1">
          <mxGeometry x="270" y="390" width="140" height="40" as="geometry" />
        </mxCell>
        <mxCell id="3eWW4N3rXiygS2KMkPMq-17" value="Create ticket_order data in MySQL" style="rounded=0;whiteSpace=wrap;html=1;" vertex="1" parent="1">
          <mxGeometry x="270" y="440" width="140" height="40" as="geometry" />
        </mxCell>
        <mxCell id="3eWW4N3rXiygS2KMkPMq-19" value="" style="endArrow=classic;html=1;rounded=0;exitX=0.997;exitY=0.548;exitDx=0;exitDy=0;exitPerimeter=0;entryX=0;entryY=0.604;entryDx=0;entryDy=0;entryPerimeter=0;" edge="1" parent="1" source="3eWW4N3rXiygS2KMkPMq-10" target="3eWW4N3rXiygS2KMkPMq-15">
          <mxGeometry width="50" height="50" relative="1" as="geometry">
            <mxPoint x="260" y="400" as="sourcePoint" />
            <mxPoint x="310" y="350" as="targetPoint" />
          </mxGeometry>
        </mxCell>
      </root>
    </mxGraphModel>
  </diagram>
</mxfile>
